<mxfile host="app.diagrams.net" modified="2022-08-05T11:05:28.058Z" agent="5.0 (X11)" etag="2NRya0RZsHRhgxsh9MSJ" version="20.2.3" type="github">
  <diagram id="tbGh7fg95uLJ8GvvhQhf" name="Page-1">
    <mxGraphModel dx="1102" dy="613" grid="1" gridSize="10" guides="1" tooltips="1" connect="1" arrows="1" fold="1" page="1" pageScale="1" pageWidth="850" pageHeight="1100" math="0" shadow="0">
      <root>
        <mxCell id="0" />
        <mxCell id="1" parent="0" />
        <mxCell id="fHaf_IxsQTMbm6-gp9eM-11" style="edgeStyle=none;rounded=0;orthogonalLoop=1;jettySize=auto;html=1;" edge="1" parent="1" source="fHaf_IxsQTMbm6-gp9eM-2" target="fHaf_IxsQTMbm6-gp9eM-4">
          <mxGeometry relative="1" as="geometry" />
        </mxCell>
        <mxCell id="fHaf_IxsQTMbm6-gp9eM-2" value="Target Network" style="shape=image;verticalLabelPosition=bottom;labelBackgroundColor=default;verticalAlign=top;aspect=fixed;imageAspect=0;image=data:image/png,iVBORw0KGgoAAAANSUhEUgAAARwAAACCCAYAAACU73dnAAAABHNCSVQICAgIfAhkiAAAIABJREFUeJztXXdYVMcXPbtLFQQLiIoiNkRFjYoCQY0FJXZFDRpjNwYFOyrWEKNR1FjBbkgUiV2xRv2pGI1ij72LNYoiSG+77/7+ePuGXZaywC7NPd83H7C8fTPvvjf3zdy5cw6ggw466KCDDjrooIMOnwVkMhkVdxt00EGHzwg6p6ODpqFX3A34XMFxHD169AgXL17EvXv3EBUVBZlMhooVK6JOnTpwcnJCy5YtYWRkJCquNkql0uKqWi1kZGTQrVu3EBERgcePHyM6OhoikQgWFhaws7ODi4sLHBwcoKenV2w21EGHYkViYiJt2LCBmjRpQgByLZUqVaJp06ZRZGSkbqShgKioKFqwYAHVqFEjTxva2trSkiVLKDo6WmdDHT4vHD58mKpVq6bUIQz0QS3sQD2/BPVtC2rbFFTJTLnTSCQSmjNnDqWlpZWITsNxXLG0QyaTUWBgIJUrV07JPqbGIJfGoN6ufHFqCCpnpGxDMzMz2rJlCxVX23XQociQkZFBY8aMYQ+/SATq5QrChtzLlG9A5iaZnaZZs2af7WgnJiaGOnXqxGxhZAAa1T1vGw7pwjt14Xs9evSghISEz9KGJQG6ua2WkZGRQUOGDMGOHTsAAM3qAjen5+8cow4CW47wv9eqVQvh4eGoXbv2Z3PvYmJiqHPnzrh27RoAoLszcGRE/s7RaQNw6jr/e5s2bXDs2DGUL1/+s7FhSYHO4FrG6NGjafPmzQCAUd2BLb0Kfi59byBDCtja2uL69euoVKlSmb9/6enp1LZtW1y6dAkAsNwbmNK0YOeafwmY9xv/e6dOnXDixAlIJJIyb8OSBElxN6AsIywsjKZP54czhXU2AMB1B/SOATGxn/Dff//h1q1bP2mgmSUaEonEf/v27QCA1ROASU0Kfq4zNYBfqvEjncjISFSoUAHHjx8v8zYsSdB5dy0hLi6O7OzsEBUVhZZ2wLWpmjmv4lv6yJEj6N69e5m9h7dv36bmzZtDKpVi2NfAH301c96+IcD+c4CRkRHu3r2LunXrllkbljToRjhagrW1tf/u3bshEQNvFmruvGdqAM0fAu9igDdv3uDFixdl9g2dmprqf/36dVStBPzjo7nzPmgKVDwLJCZLIRaLERERUWZtWNIgLu4GlEVwHEeBgYEAAI92mj//DV/+59mzZ3Hr1q0yueISHR1NoaGhAIAJ/TR//h968j+Dg4OhW7UqOugcjhZw69YtPHz4EACwe5B26qhaif+5a9cu7VRQzDh48CDS0tKgrwfMctT8+Rd/BYhEQFxcHE6cOKH5CnTIFjqHowVcvHgRAGBipL063Foq11XWEBERAQBwbKC9OhrV4n+WVRuWROgcjhZw584dAMAX9bRXh9ARb9++rb1KihHCdWnT4TjaK9elg/ah27ypYZw7d4769eODDjWqaK8eYXn4/fv3MDU1JZGo7Cy0EBEb4dSw1F491hb8z/Pnz+P48ePk5uamy8vRMnQORwNISkqi7du3IygoCG3btmWf6xfRGmBiYmLRVFQM0ObOJ8GzJCUlwd3dHQ0aNMDq1atp2LBhMDc31zkeLUDncAqBJ0+eUFBQEKytrfHp0yeV/3+M117dvz0DRir8bWxsjPHjx6Nx48baq1TLiIyMxMqVK5VsmZCsvfpis/jphw8fYsKECZg1axZ8fHzIx8cH9vb2OsejQeiMmU/IZDI6duwYgoKC8Ndff4GIfwWLxWKYmJggISEBRkZGSE1NhW1V4LmWMjx8TwPLdgIikYi1QSKRIDAwEGPHji1193X37t00dOhQpKSkKH3ety2w/zvt1CnsrxLul4mJCVJTUyGTydgxnTt3xvjx49GtWzcdr44GoAsaq4mYmBhatmwZ2dnZoUePHjh27BiICJUrV8b06dPRrVs3JCQkQCQSwc/PDwDw/J322nNeHuds2jRzY5FMJsPYsWMxceJEkkqlpSa3ZMGCBfTNN98gJSUFQiyqRYsWAIALd7RX7+UH/M+xY8dCIpEgKSkJbdu2xcyZM2FhwQd4Tp48iV69eqF+/fpYtmwZxcTElBq7lkToHE4euHHjBo0aNYqsra3h6+uLp0+fAgBatmyJ4OBgvH79GpaWljh8+DAAYN68eZg8eTKMjY0B8FsRtIGIe/zPSZMmwdraGgBgbm4OAFi1ahV69uyJuLi4Et05UlNT6bvvvqM5c+aAiFChQgUQEczNzbFo0SIAQFSsdure/ipzuvbDDz9g2bJlAIDw8HDo6enh1atX+P3339GyJZ9/EBkZCV9fX1hbW+P777+nmzdvlmjb6lCKkJ6eTqGhofTll18qk2UZGNB3331HFy9eZA/b//73P5JIJIxrRSB4+v777wkAVbfIm7Mlv+WHXnx7rKysKC0tjXbs2MHa2LZtW/Z748aN6dmzZyWyY7x//17Jvoq/r1q1ijiOo5YtWxIAcmupeRs6NeTr6tixIwF8dvjAgQNZGw4ePEhERBzH0cWLF+nbb78lfX19peehXbt2tHv3bsrIyCiRNtahhOPNmzc0d+5cqlq1qtKDVbNmTVq4cCFFRUUpPVjPnz8nCwsLAkD169enT58+sf/L34AEgGZ8q9nOIhbx5507dy7rLB06dCAAVK1aNfrpp59IJBIRALK0tKR//vmnRHWIO3fukK2tLbPP1KlTqVGjRgSAmjRpwqaDf/zxBztmxzzN2W+jb+a93bdvH7NNYmIiOTg4EAAyNzenx48fK9nt7du35O/vr/J81KhRgxYuXEjv378vUXbWoYQiPDycBgwYQHp6ekoPUocOHWjv3r3ZxkNSUlLYG9jU1JTu3LmjcoyXlxcBcgehoc5iVxOMqzc+Pp7VeefOHTbSmjZtGu3bt49RcRoYGFBISEiJ6AxHjx4lMzMzAkD6+vq0ZcsW+vXXX5nNz549y9oplUrZyKeSmeZsaGrM19WlSxcVytFHjx6x9jk4OFBiYqKK3dLS0ujPP//MdgQ8dOhQunLlSomwtQ4lCImJibR+/XoVMnNTU1MaN24c3b17N9eHZvjw4ew7u3btyvbYhIQEql27NgEgE6PCdxTHBpntPHPmjEqdkydPJgCkp6dH9+/fp+vXr5O1tTX7zuzZs6k4pV9WrlzJnGLlypUpPDyc3r59yzr4oEGDVNr28OFDMjY2JgBUy6rwNqxWGYzj+OXLl9naIiwsjNls0KBBufIgX7t2jUaMGEGGhoZKz5GTkxOFhISUGB7qUo+kpCQ6c+YMrV69mvz8/Gjy5Mk0b9482rx5M924caNYH+zc8OjRI5o4cSKZm5srPSD29va0Zs0aUifQGhQUxL43bdq0XI+/ffs2m3aVMwIFTSpYR7G3yWzrmjVrsq3z06dPZGVlxcc93NyI4zh68+YNOTo6su/279+fkpKSivTeZGRkkDDaA0ANGjSgx48fExHRkCFDmKN/8+ZNtu06cOAAi59Uq1xwZ2NhztdvZGREJ0+ezNUGs2fPZu1duXJlnvb68OEDLVq0iGrWrKn0XFlZWdG8efNyvLbiRmJiIp05c4ZWrlyp1I83bdpE//77b/GudnIcR//88w8NGDCAvXVyKlZWVjR16lR68eJFsRtaJpPRwYMHyd3dncU2IFdD6NOnT54PnyLOnz/PHn43Nze1bsjt27fJ0tKS1dv+C/U7yXgPkESct7MRoBj32LNnDxERJSUlUf/+/dnnjo6ORdYBYmNjyc3NjdXt5uZGsbGxRER07tw59nlAQECu7QkLC1MK2n7rpr4N+7XLtJ86zgbgp3Pu7u5sxPj333+rZa+MjAzat28fi6kJRU9Pjzw9Pen8+fPFrhzBcRyFh4dT//79VcIIWUulSpXI19e36BcfXr16xW6AYqlsxsucuDqAHGqDjA2V/y+RSGjGjBmUmppa5Eb++PEjLVmyhE1rhGJhYUF+fn75dob//fcfk3mpVatWvrSOXr9+TV27dlVqRz1r0Lg+oN9mKHeQuUPlTknhWBsbG/rf//6XZ30ymYzFFmrWrMlGMzKZjObMmcPOZ21tTdevX9fqPXn8+DE1aNCA1enl5cVWdKRSKTVr1oyNeNLT0/Nsy40bN6hp06ZKdnFsAJo2ELR9Tqb9ts3mFS++qKdsw1atWtG9e/fUvubo6GgW3K5atSr9999/+bLX7du3ycvLS0XWpnnz5vTbb79RcnJykfeJR48ekaurq0o/tjAHtVTox1lldkQiEfn4+GQb09I4du/erTQFqWcNWu6d+1tlyjcgMwWJEwcHB7p//36RGFiYV2cdhbVq1Yr++OOPAjm/9PR01pGNjIzo2rVr+T4Hx3G0bds2tUTwhFKpUiXy8/NTa6on4Pr162wkJ3cyDNu2bSMDAwMCQOXKlVNapdEkwsPDqVKlSuyls2rVKqV6AgMD2TWeOHFC7TakpaVRQECAWiJ4QqlduzatXLmyQMvX165dIyMjIwJArq6uBYrJxMbG0vLly6lu3brKL+vKlWnGjBn0/PnzIukX69evV+oTDWqCVk/Iux8rShXVrVuXrl69qr32hoSEsIfX1Bi0Yar6Q1lsAHn1ymyslZWV1pxOWloahYSEkLOzs9JNNTQ0pKFDh9Lly5cLVe/YsWPZOeXTlgKD4zg6e/YsjR8/nhwdHZUeAolEQnXq1KFvv/2WgoODC/wWFNprYGCgsrz7zz//KE3xFi9erNFh/ubNm9n0x8zMjI4ePap07g8fPlDFihUJAHl4eBSo3oyMDNq7dy+NHDmSGjZsqDTdMjAwIAcHB/r+++/p4MGDhY5DBAcHs3OPHz++wOeSyWR05MgR+vrrr5WeUbFYTH379qVTp05pbbq1ZMmSTEdnBvozn2kGvp68nhrk9/TSpUuab+eBAwdILBYTAGpYK38NzFqEqVbVqlVzXB0oCF69ekWzZ8+mKlWqqExBFi1aRB8+fCh0Xb/99hs7r4+Pj8YNzXEcJSQkUGxsrMaCdB8/fqTKlSsTwCckZv1/ZGQkNW7cmF3XsGHDCj3tlclk5Ovry85pa2ubbbrA6NGjCQAZGxtrLMYnk8no06dPFBcXp5VOqxj03rZtW6HP//DhQ5owYQKVL19e6blt3LgxrVu3TqNifYqjSZfGhevHFctnOh2N0tu+e/eOPbANahaukUIxMuAb6+7uXuiH4vTp09SvXz+VoJebmxvt379fYx336tWrbEjdpk0btWINJQUbN25kdjl06JBKu+Pi4pTiSm3bti2wg05ISKBevXqxc7m6umabCHf58mX2Eps/f36psWVqaio5OTkxR/nvv/9qpO3x8fEUFBREDRs2VHqOzc3NadKkSSqj0/zizp07bAr9pYNm+rHgdJo1a6a5ZX9hVcPIQDONxAb5dExu0M2bN+e7oQkJCbR27VqlNzMAKl++PPn4+Gh8uvb+/XuysbEhAFS9enV69+5dqekgAB+YFZbE69SpQykpKSrtz8jIoEmTJinFO/LKQcqKly9fsgAwAPruu++yHS1xHEetW7dmsYDiWEgoDF69esVG0nXq1NHoRk6O4+jkyZPUu3dvpZVUkUhE3bp1o6NHj+Y71UQqlbLk1CoVNdePsSGz7/3444+Ft4H8gSMA9Os4zTa0s2Pmg63uKOTBgwc0fvx4liAmlEaNGlFQUJBWtKKlUilb2jQwMKALFy6Uqs4hICIigtnr559/zvEa1q9fz5LyzMzM6K+//lLrei9dusRS/UUiES1cuDDH723atIm15eDBg6XSnmfOnGF26tatm1byzSIjI2natGksziWU+vXr08qVK5W20OQGuY35oklnswE0omvmy14x471A8Pb21o5XzOIdDx8+nGNDZTIZHThwgNzc3FRyZzw8POjUqVNafWCnTp3K6ly3bl2p7BwCRo4cyaYCua2InDx5kipUqMDsLJ/754gdO3aw6Wa5cuVoz549OR4fExPDEiC7d+9equ25dOlS9mz4+/tr7VqSkpJo8+bNSqNHAGRiYqJWNnyXLl0IkGeoa6Efi+X5YXk9J7lCJpOxh272EO00tIUd31BPT0+VhkZHR9OiRYuoVq1aSkauUqUKzZo1S6MB55zw559/snrlnbVUIyoqiqU19OvXL9frefDgAdWrV49dv7e3d7bLyf7+/uxFUL169TyXSoWXmKGhYaHjEsUNjuNowIABbFR35MgRrV4Px3H0999/04ABA9joSiidOnWiAwcOqMwW5DlDBIB+99NOP/aQJ1S2atWq4Nf/8OFDrQ3DhPLjcLB5sFDvlStXaNiwYeyNKRRnZ2fatm1bke1JuXXrFkvUatWqVamLM+SE1atXM5vmlfcSHR1N7du3Z8d36dKFDeNTUlKEPU8EgFq0aEGvX7/O9Xz//vsv6yjyLQOlHvHx8SzQW6FCBXr69GmRXNfr169pzpw5KquytWrVooCAAJaMunfvXq33422z+fPr6empvV1GhTJx+/btNHjwYOhJAOlazRlKBT/wP9atW4fg4GBcvnyZ/cvIyAgDBw6Ej48PHB0di4zWMTY2lhwdHfH06VNYWlri2rVrsLGxKRO0khkZGdSyZUvcunUL9vb2uHnzJgwNDXO8trS0NBo3bhy2bNkCAGjYsCF+//13TJw4kSkq9O3bFyEhITAxMcnVRm3atKHz58/DxsYG9+/fz/P40oIHDx5Qq1atkJCQgGbNmuHChQtFdm2pqam0e/durFmzRqXvDB48GGKxGJs2bYK9DfBgthYbIu/Hly5dgpOTU57XrkKi/uLFCwBALSvgqYbblh3Gjh3Lfre1tcXYsWMxatQoWFhYiH7//fciaAEPmUxGPXv2xNOnT6Gnp4ddu3aVGWcDAPr6+qK///6b2rVrhwcPHmDVqlW5Hm9oaCjiOI4aNmyIadOm4f79+3BxcQHHcQCAmTNnYuHChRCLxbnaaNu2bTRkyBAAwK+//lpmnA0A2Nvbi/bt20ceHh64efMmvLy8wHEc5WUTTcDIyIjVcenSJVqzZg127tyJ1NRU9pIAgNrVgAfabgyA//77T63jVChG09PTAQBGBpptUG4wMDCAp6cnzp49ixkzZogsLCyK/KH09/fH0aNHAQBLlixBhw4dykzHENCuXTvR4MGDAQDz589HXlMhsVgs8vX1Fc2ZMwcikYg5m9GjR2PRokWivDpWfHw8TZs2DQDg5uaGAQMGlDmbenh4iAQO623btmHtWm1OC7KHk5OTKCQkRBQaGoqGDRsq/U+b6q8AYKDP/0xNTVXreBWHY2TEtzA5TXONygvp6enYuXMn6tSpg379+tGZM2eKdEftgQMHaMGCBQCAQYMGYcqUKWWuYwhYsmQJTE1NkZiYiOnTp+d5/LJly2jhwoUgIojF/OOyefNm+Pn55bkk7O/vj3fv3kFfXx+rV6/WzAWUQCxYsABubm4AeI7pomRYTExMpLVr11KjRo1owIABuH//vtL/47UoswMA6Rn8TxMTE7WOV3E4devWBaBdxYHsYGRkBJlMhr1796JDhw5o0qQJ1q5dq5UcG0U8ePCAhg4dCiJC06ZNsXnzZm1WV+ywtrYW/fjjjwCA0NBQKDLsKSI9PZ1Gjx5Nvr6+4DgOjRo1woULF9C6dWsAwOLFi9G/f3/ktHv47t27JDiZCRMmoFGjRmXWievp6Yn+/PNP2NjYQCqVon///nj79q1Wn9vHjx/TxIkTydraGuPGjcO9ezyrfvny5QGAvRyevtFmKzIhEPnnBRWH4+joCAAgLZpr1jn+p52dHezteYFnQ0NDzJ07Fw0a8GLSd+/exbhx42BtbY0JEybQgwcPNN6i+Ph46tu3L+Lj41GxYkXs37+/TMUYcsKECROY3X18fJB12fvjx4/k7u7OnK+7uzsuXLgAZ2dnUXh4OAYOHAgA2L9/P9q2bYtXr16p3JsJEyZAKpWiWrVqEBxcWYalpaVo7969MDAwwNu3b/HNN99A09tgOI6jI0eOUNeuXcnOzg6rVq1CXFwcJBIJPDw8MGrUKCQkJAAAhg8fDgB4ql5opUDYIg/yGhoawsHBQa3vqDicWrVqwcrKCgAw8aTmGqeIvWf5ny4uLjhw4ADKly+PuLg4HDhwAFevXsXJkyfRu3dviMVixMfHY/Xq1bC3t0fnzp0pLCxMI/ukOI6j4cOH4/79+xCLxQgNDUXdunXLvLMB+IDwmjVrAAC3b9/GunXr2P8ePnxIzs7OOHPmDADeIR05cgQVKlQQAUC5cuVEoaGh8Pf3BwDcuHEDrVu3hiKP765du+jUqVMAgKVLl8LMzOyzsGurVq1EQUFBAIBz585hxowZGjnvp0+faMWKFWRnZ4fu3bszTTQLCwvMnDkTkZGRGDNmDIKDgwEAAwYMwJIlS9goJ/CeRpqhgp38I4LWrVvnuuKZJ2bMmEGAnAdDi5nG4eHhBPAxFOEzT09PFr95/vw5+fn5sU2kUMg5WLx4caF2gv/yyy/sfAsWLCgTuSH5hbBfztzcnKKioujUqVMsnV5PT4/kVKo54s8//2RcvsbGxrR7925KSkpiNJtyyZrPDsJueAAkTyItEO7evUtjx44lU1NTpee/RYsWFBwcTCkpKUREFBkZybiHGjVqxMIQcuoPnp5Wi/34999/L9x9joyMZFmkms42bmXPN7Jx48ZKgWFFNjo5iz9DSkoK/fHHH0JGIyuGhoY0fPjwfLPkHz9+nO1Y7tOnT7FTPhYXXrx4wbh4vvzyS7bz3tzcXG1SrIiICMajDIC++uorgnxrxOcqFpeSksI2zZYrV45u376tth2kUint379f0MtiRV9fnwYNGqSypy8lJYWaN29OkO9rUgw9nD59mn1/8zTN9uNervx5LSwsst0UnG+MGTOGf3DEmmvkL99nGjAr05xUKmVUCRKJhOTGUsGlS5do6NChbMu9UJycnGjbtm15ZgY/e/aMvQ3s7e0Lv/GslEO+oZOVunXr5ouGE+AdV1bqTzkB2GeLFy9e5KhZlh2io6Np8eLFKlt6qlatSv7+/pRTEFpRPUSeXczAcRx16tSJd0blNNeP/5iZ2b6sTI4FRlxcHKNmKAxTvlC2z8kUcMtODgTgN/gJNIwWFha5kjO9f/+efvnlFxWWfEtLyxz3XCUnJ9MXX3zB3gZFRXlaUhEfH6/Eh2Nqaqoi9pefcymm27du3brA5yor+N///sdG0r169co2jeDGjRs0cuRIFTpcFxcXCg0NzZV/Sb6pmACQPAyighcvXjCSL01NrQReq6+++kqzu+X//vtvtrepMJK166dkOpsGDRrkSj5+8+ZNtpfJ0dExz+FaRkYG7d+/n3lyoWRH2zh48GCCfMOdtrh88wuO4yg6Opru3r1Lt27dolevXhWJdOzz58+z5VbesGFDgepW1HISiq2tbb6mEwWFTCajt2/f0u3bt+nOnTv07t27EiNTtHjxYmYPIVaYkZFBO3bsUCEzNzIyouHDh6vFGXzx4kU2yu/UqVOuCym7du1ijq8wZHo75mU6m+rVq1NkZKTmbXzixAkWGJSI8x/T6e6caVA7Ozu1mO8Vd2uPGDFC7RjLvXv3yMfHRyXI1rBhQyWZlFmzZhXrw5iamkrbtm2j3r17q2zCg/zBa9OmDc2fPz/fSgHq4MKFC6xesVhMAQEBAg0pVapUKV9qFAAfR5BvxKXWrVvTpk2bWDyofPnyWtlNHRsbSytWrCA3NzcVmk6A31Dp7u5OgYGBxTpt5jhO4G0mkUhEQ4YMoerVqyu1tWbNmvTLL7+ovQgSFRXFBA5tbGzU+l5ISAhzOob6oIAf8tePv+mQ2d7q1avTo0ePtGfTv//+m02vAFAFU9DkAbk3sP9XynpKbm5u+eo8U6ZMYd9du3Ztvi4uJ9pGyG9Qdjy7RYG0tDRauHChEoF5XkVPT48GDRqkMVqO7du3sxeIiYkJ7d+/nwDgyZMn7PP8xl9++ukn5ryEAP6ZM2dYrEwsFtPKlSs1EpyPiYkhb29vFemV3Er58uVpypQpxeZ4Tp06pUIeB4Dat2+fo5R0TpBKpWwnv6GhYb4WTA4ePKj07FUy48nR89OPXVxcimZnfFxcHI0ePZp5ScViYQ6ysVKWhRGKubk5BQUF5XuIm5GRwRj39PX1qSDp4hzH0c6dO1VkWCEfhu7fv79Ipi8AT3shxI+E0qE5aPEY1Zu8aRpoSBdlbSBzc3MKDg4ucKflOE5Jl6pGjRp048YNpXPNnTuXvYnVlcF5/vw5iz98//33St959OgR2dnZsTq9vLwKxQl97NgxpdGBnoTnZFkzUdWGK31APb/MJImCfIqXnUSyNpCamprtyirAxycLKrWiSFIvZ1DMF96/f0+DBg1SIrUDeEUGywo592NTU1MKCAgoeiXOyMhImjp1qkqwNmtxdHSkVatWFWprwvv371k91apVy/f0Ii0tTYn4evTo0SqjC2E4mx3ht6YQHh6u9Eb+rrP6Q9klXrw8j/DdGTNm5NvpJCcnM8IogOf5yc6WSUlJbCTr4uKi1kuib9++/Nsyh6lYTEyMUnytU6dOBeICXr9+vZKjmfGt+jac1D8zhigWiykkJERr9/rVq1c0a9YsleesTp06NHToUPb38OHD830f5Rr2BIDkuT4FxuPHj2nKlClKKQ3ZFQcHB1q9enW+dNG0Ao7j6OnTp7R//35au3YtLV++nDZv3kzHjx/XiDSLgCtXrrARSn6FyORvXAJAoaGhBGTGTwRHJBQDAwMaMmSIxvV2zp49y5yNhbn6nSRrads0s61+fn5qt/G///5TessOGDAgV60rReKmvBK65LzHBCDXJMH09HT64Ycf2LF2dnb5igHIA9kEFE6uqG71TKezfft2jd/nrNK5IpGI3N3d6dChQ8x5K45Q5E5ULdy9e5fFJjVJDCf043379lFQUJBSP/748WPxOpnigqIulJyqMk8oSqTIVQlUcOXKFRo+fLjKlEtQ6CxsQtP79+/Zm04T/NBft85sY9aci+xw48YNJYXKOXPm5Pk1iNxHAAAgAElEQVRW5TiOOnfuzLe5SpUc80fS0tLYdKl58+Z5joY4jqOVK1eyKXnFihXVmt5cuXKFsQU2q1t4G9rb8LYwNDTMd75RViQlJdHGjRtVcpDMzMxo/PjxJGfPVELWUIGc5D5XxMXFMcnkvNJFdNAQFJUv83rzRkREsCXD9u3b5xmn+fDhQ7ZJV4IGeUGlWIVpjKF+4TuKUIRMbUtLy1yngQcOHCATExPWufIzjbh//z57U+fkrIXlXpFIlK/42pEjR9iqkp6eXq5yQampqdSoUSMCQDWraM6GlhUyXywFieE9e/aMfH19VVQV7O3t1VoVi4qKYi8Ca2vrXPOVOI4jYdoqkUjo5MmTOmdTFEhLSyMXFxfWgXIKur17944tGdaoUSNfyWdSqZTCwsLYG14oYrGYevfuTSdPnlR73i3vhATwcRhNdRZskDuwXJxBQEAAG0lUqVKlQBI306ZNYw951lya169fs+H9kCFD8n3u27dvKzl3X1/fbIORa9asybwPGrQfNmTe2/zINp84cYJ69uyptHAiFoupV69e+XYE6r4UFy1axOqS/65DUeHNmzdMA8nGxkblDZ+RkUHt2rVjTqkweuIPHjygCRMmqCxnNmjQQK0g2sCBAwkA1bPWfGeZNpBvi7m5uVJQPi0tjRRT3R0cHAo8OouPj2crQu3bt1dytMK1mZmZ5ZhynxeioqLoyy+/ZG3t2bOn0rVwHMemER7tNG9Dt5aZo5y87LBmzRqyt7dXeg4qVqxIvr6+9OzZswI/Y4qBcHlsRwknT55k00n5KEeHosa5c+fYcL9jx45Kb4YJEyawG1gQZc/skJCQQOvWrVNR+zQ1NaWxY8dmm9MTHR3N2rjCRwtv5w2Zy71btmwhoU7B2QK89lNh807kgXYCQDt27CCAX3ETPlu+fHmhzp+SkkJC9jfAS8cK8QnFerRhP8VRzvXr11Wu4+HDh9mKLzZt2pQ2bdqUa+BdXXAcRyNGjGDnlq9CAVDei9WgQYPPfs9fsUJRnF14M8hjFARAWBHRKDiOozNnzlD//v1VtIE6dOhAe/bsYc5PKc1fS52l/RdgU5r79++zPWgAaPLkyRpJ7ec4jjkxa2trio2NJQcHBwL43f6ayGHiOE5I+ScAZGVlRREREYLAnEZjN1mLoJEtOE6ZTEaHDh2iLl26KOWp6Onp0YABAygndsTCIDk5mVq0aEEAn4h59+5dSk1NZbvNTU1NCx3cLkkolcRI8jcD/vjjDwBAQEAA/P39kZKSAmdnZ5w9e7ZwhEB54NWrV7RhwwZs3LgR79+/Z5/XqFEDXl5eiI6OxsqVK2FXE3g0RzttmHUO+CWErzMxMRGfPn2Cnp4egoKC8MMPP2js2m/evEktWrSATCZDp06dIBBrnT59Gh07dtRYPbt376ahQ4ciJSUFRkZGsLe3x7///gvPjsBOT03VooyuvwHHLgEeHh5wdXXF2rVr8fRpplaJpaUlxowZAy8vL9SsWVNrz1NkZCS1bNkSMTExsLOzg4uLC3u2d+/eXWbI5xMSEqjUXkhycjK1adMG169fh0gkAhHBysoK169fh7W1dZFpA+3duxeBgYG4ePEi+1wsFoPjOPT8Ejg0TDt1//EcGLYo829jY2MMGjQIderU0XhdR44cUbq+Jk2awNNT817gzZs3CAkJYTSZADBvGDD/S41XBQCYdBJYuSfzfglo1aoVxo8fj2+++UZJjkWbOH78OH399dcgBW5fX19fLFu2rNT20ewgSkxMJFNT01J5Uc+ePaMGDRogIyMDIpEIR44cQbdu3YrlWi5dukTTp0/HuXPn2MM7pAuwrZ8WK/1Bi+cuIVjuDUxpqp1z/xQB/BjM/y4SieDk5ISAgAB89dVXxfIMjR07lgS617p16+Lhw4fQ09MrlX0zJ+iVVmcDABs3bkRGBq9TQUQIDAyETCYjiURSZNf0+vVr2rBhA3r37o1375SlLlLTi6oVQIUKFVCtWjWIRJq/9JSUFERGRrK/a9asydQBNI2oqCh8/PiR/Z2WoZVqAAApClJIRISIiAj07dsX06dPp3HjxsHW1rbInqMPHz5Qy5Yt2d+RkZEIDw8vquqLDCrKm6UFe/bsof79+wMAWrRogevXr+Po0aP46aefiqT+8PBwCgwMhK2tLaRSKfu8Y8eOMDY2xpEjR/AySnv1L/0XmAaeMT8tLQ2fPn1CkyZNsG/fPlhaWmqso8hkMmrVqhUiIyNhZGSE1NRUiMViXL16FeXKldNYPYmJiTR48GAmd2JmZob4+Hi80KJc0Ut5+K1169aoXLkyjh07hpiYGCxZsgTLli1Dnz59yMfHBx07dsxTYbQwkEql5O7ujpcvX8LAwABWVlZ49eoVBg4ciBcvXlCtWrVK7aAgK1RUG0oD7t27R4IMRvPmzXHu3Dl88803AHhFSfkqkcaRmJhI69atIwcHB2rfvj327NkDqVSK8uXLw9vbG/fu3cPp06dFHh4eAIB/n2ijFTwuy/XOOnTogAkTJgDglQKcnJygyVWNjRs34vr16wB4BQaRSIQXL14gICBAU1Xg5cuX1KZNG4SFhQEABg8eDEEh9LIWdWoFG7q5ueHYsWOiR48eYeLEiTAzMwPHcThw4ADc3Nzg4OCgVY202bNns2D8qlWrcPToUZQrVw7R0dHo168fNMIZXAJQKrnD4+Li2B6eypUrs8S2hIQEtmRrZmamUR2rhw8f0oQJE8jc3FxpOdze3p7WrFmjkiMhpy7V6rK4sKQr5yTGunXr2HK9ubk5HT9+vNDXHx0dzThtevfuTQAgbMI0NDTUCC/KpUuXWDKnSCRirHhCDpBYg5zaOeXhHD58WOk6EhISmJolFO63mZkZTZw4UaPkU4qbZeVJmwAAed4TAYXfGa5DAcFxHPXq1YuQw76Sx48fM6fQsGHDQiVLyWQyCgsLU8nJkEgk1KdPH/rf//6X47k5jqOWLVsSIN9wqeGOsnkaWAd98uQJa8fJkyfZ9UskkjxlXvKCQKRvZGTE6CQVnZD8XhQYO3fuZFw6gsyM8L/4+Hi252rmYM3b0Lsvb8MqVarkuPOa4zg6deoU9enTR4UHqmvXrnT06NFC5Tvdv3+fXWOLFi1UNgtPnjyZ1VcQ7hsdCon58+ezGyDfPKiCw4cPMwfRr1+/fHOOREdHU0BAANna2io9YJaWljRz5ky1d+oGBwdrbZRTz5o/b/fu3VXakjUJ0MfHp0AJelevXmWd7Mcff1T6viJ5d0HpQ3/66Sd2n6pVq5Ytc9348eMJ4BkmNW1DgdxMTkqWJyIjI2n69OnM2QqlXr16tGLFijxVGbIiISGBMVJWqlQpW37g9PR0lnhpYGBQqK06OuQTR44cYR1Azk+cIwTKS+TimLLi6tWrNHz4cEYaL5TWrVvT1q1b880/kpKSwjq+JvdTTeiXObo5f/58tm3Kus3B3d09Xx2C4zhydnYmAFS7dm2VN69UKmVaSPXq1cuXbVJSUujbb79lbWvevDllJxUM8J1c4BLq7qw5G37VjK+7QoUK+SZ1S05Opi1btqiwN5qYmJCXlxfdvXtXrfMJHNtisTjX6e/bt2/ZnraaNWtqlGtKhxzw+PFjqlChAkGeUp9X8E4mk7Gpl1gszlHULS0tLVsyLiMjIxo2bFih3yjnzp1jb/EeLoXvKBumZrZRPtzOEWlpaTRy5Eh2fKNGjdSOuSjyDwmcx1mhuBtermKaJ969e8ccGcBvSExMTMz1u4rbWPLD8pdTGdcn04Zbt24t8P3lOI7OnTtHnp6eSqRbAL/Hb//+/TnScS5dupQdq47q6z///EP6+voE8NzgRU7z+TkhMTGRBYPNzc3VDth9+vSJ6tevz4asirt6BRrIrIoJtWrVokWLFmn0LSLwBAOgboV4S6/wyWxn8+bN1do8yHEcLV26lDk9CwsLOnfuXK7f+/TpE7PL119/neuxw4YNI4BXl8yL5P3WrVtKlBTqUqXKZDKmKAHkTd6fWxnTM9OGgwYN0pji6uvXr2nu3Lkqz5ONjQ0tXrxYiXr19OnTLLjfq1cvtdug6Hjzw/hYJpCRkUEnT56k+fPnk4eHBzk7O1Pz5s2pXbt2NGTIEFq9erXGZF49PT3ZFOLgwYP5OuedO3cYCdUXX3xBx44dIw8PD6XNlyKRiNzc3OjAgQNa0TLiOI4UFShqWOa/o3RplfkQf/HFF/mWcQkLC2N2MDAwyJUDRthxb2BgkKdzf/fuHdtNLScbyxaHDh1iwVEDA4N8a1GnpKQIzo8AUAu7/NuwsW2mDfv161coMveckBN9rZGREY0cOZKOHTvGGCDVUeNUBMdxAvcQAarKtQVBWloanThxghYuXMj6ccuWLcnV1ZVGjBhBQUFBdOPGjeKTwo6OjqaFCxcq0VbmVpycnCgkJKTAu4qXLVvGzpU1cKkutm3blm3bBBpITS6f5wRhR7Ti0PuLeqCNvrl3kn7tlCU63N3d8+1sBNy4cUOJ+N7Pz0/Fwd66dYs5Y3XfoitXrmTnzG7l7tdff2WxNwsLC/r7778L1P6UlBQSRlRC6eyYu/3+nJcZrxHK2LFjteJssuLy5cs0ZMgQFUlqgE8pyKqYoQ6SkpKoWbNmBBROOfbt27c0d+7cPAnUhdKiRQvasmVLvvjEC429e/eqKh5U4cmRpnzDC+R59+WJjbLKTLRu3TrfW+xPnTrFHv4ePXrk28s+ePCAfHx8VPhMqlatStpM4soN165dU+G/BXjKy2Z1QS3tQLZVeckOxf+bmZnRxo0bC/2mefv2LbVu3Zqd18PDQymGIgSaa9SokWdsRUBGRgab8jZs2JB15vT0dFIksW/YsKFG8nbCwsKoWrVqKjasYcmPfJrXl6vEZvm/jY1NjrE8bSIqKooWLFjARphCqVatGv3000/5JjB7+vQpozbNb+oHx3H022+/qeST1bAE9WnDa1TN+g403oOnP8naj5s0aaK2fFCBIZVKlR4cA33QyG7qDWM7tlD26ury6iqSD9WrV0/toadUKqX9+/eTm5ubCp+JML+WSCRa4TVRFzKZjI4dO0bdunXLVuNLsQiJhZqU6EhOTqZvvvlG6e31+vVrQcWAgEyyLXUhJ0MnAPTrr79STEwMIwoHQF26dMn3snFuSE1Npa1btyo5z5yKq6sr7dixo2jfzlmgGIQX6G+Foq+vT4MHD6aLFy+q/UI5evQoe7779++v1vdSUlIYNzLApwWM7a1eP1Yk75dIJLR69Wrt2FIqlSoNY1vZq9fArEUgrRaJRCSf4uRqGCFpzsTERC2VzA8fPtCiRYtUSNCrVKlCs2fPplevXlF0dDTLralSpQq9fv262B5AAfHx8XTq1ClavXo1zZkzh/z8/GjJkiW0e/fuHJeKNQGO44QpKhv1CaNXuaPINwTaURMTE6pduzY7t7e3t1ZXVd6/f08HDx6k5cuX08yZM2nWrFm0YsUKOnLkSImQObl69SpLtWjXrh1lZGTQv//+S6NHj2ZJj0JxdHSkP/74Q600A8XUD/mqV47IGgPr1KJg/biGZWZbf/31V83bdvr06ayC/Ii3ZVcEeQ6RSJRrlq4iJ68i5WJ2uHz5Mg0dOlRF5sXZ2ZlCQkJU3mrXr19nN9/JyUlj2j6lFaGhoUq2k0gkBZZBfvXqlVIOk0QiIfnKymeL6Oho9hKsXr06vXv3TskeHz9+pKVLl2abZCq8KHM6t0wmExI/SSwW0+nTp7M9luM4EhZeADkfdiH6sVPDzHZqVFDw/PnzbNg2qFPhGikUIUPWxsYm22mCPBWfNwyvGqCCnCRUjYyMaMSIEXnOMRWDyPLU/c8aO3fuVLLjwoULCxQr2rhxo9Lqn1begKUIMpmMqX/o6+vnqpwhqIW4ubkp3QuJREL9+/ens2fPZntPYmJiqE6dOsxJZeegFHmpC+tshCJIFZmbm2tmJC6VShljft3qmmmkUIRVF3naOsP58+dzTW568eIF+fn5qQSua9euTUuWLMnX6o2QMg/o9qgInUJxBW3IkCFqj/5kMhkp7vkR7mGzZs2KTLe9JGLWrFnMJvkZ6d27d4+8vb2ZDI9QmjZtShs3bqSkpCSlc928eZNNzbKO2mNiYliAuU0TzfZjQX5a2NRbKMjzXfiiwUZiQ6bESbly5Sg2NpYAXo5WWHmoVauWkvM4efIk9enTRyV3xt3dnQ4ePFig3Jn09HRq27YtAXxeiDrqh2URe/bsYTbdsGGDUoLdl19+maemV3x8vNJ32rZtS4r615/rlCosLIzNDgqi2wXwrAirV69mzAhCyU6eRlFAwMvLi30eEBDAvwT0NN+PAydmtqnQdChdunQhAOTYQPMNxQZejB4ArVixgtLT08nV1ZVNi65du0aCFpCwuU0o5ubmGqMHUNyjYm1trTK/LutITk4mGxsbAviVHI7jSCqV0tSpU5m9bW1tc4zpPH/+nJo0acKOHTZsGIuZCashFSpUyFUdtCzi0aNHbNm5WbNmhZaTkclk9Ndff1H37t2VVl5FIhH17NmTTpw4QRzHkeKoPTg4mDiOY7Ghoe7a6cdVKvL1yZNFC4bExEQ2mtg8TTsN7deOb2iHDh1o3LhxzFCLFi2icePGsaxUoTRp0oTWr1+vdm6Iurh48SKbArRr165IEsJKCuS7pEksFqskoW3cuJFNscqXL09Hjx5V+v+FCxdY0phIJFJRhIyMjGQB5M+JyyUxMZHpl1WsWFEjeUeKePLkCU2ZMkUlj6ZBgwa0cuVKtk/N0NCQ/vzzT63NUoTi68mfX/7iKhgUcyq01dC1k8EMI9SVNXtZm1pAitiwYQOrMyfp3LKGJ0+eMNvLNdtVcPr0aTb/F4vFtGrVKuI4jrZv386+a2JikmOKvbBsKxKJ6NKlS5+FXRW34RSUtkMdJCYm0vr161nCpVBMTU3Z7nqBRsPUWHv9GBsy61Y3zUSFK3X9+vXk5eWFiuWB2GUatFJW5KA4ULVqVXz//ffw8vIqMrmX0aNH0+bNmwEA27dvx+DBg8sMh2x26NGjBx0+fBgWFhZ49OgRKlWqlO31Pnr0iHr06IFHjx4BAFq2bIlr164BAKytrXHo0CG0aNEi2+8mJydT48aNERkZiVatWiEiIgJFSW5f1Fi+fDlNmTIFAODv7w9/f3+tXyvHcXT27FmsWbMGBw4cUJK6EeDUCLg0UYuNkPfjM2fOoEOHDnleswqn8YcPHwAAVStpuGF5wNXVFaGhoXj58iV+/vlnUVE5GwAIDAxE69atAQCjR49GQfa5lBYcPnyYDh8+DABYuHBhjs4GAOzs7EQRERFo3749ADBn07x5c1y+fDlHZwMA5cqVE61cuRIAcOXKFQQHB2vsGkoawsPDafr06QCA7t27Y968eUVSr1gsFnXo0EG0b98+UWRkJGbOnInKlSsrHWNqpN02SOQeRFEQMjeoOBxBiEsLaiO5N0QshkQiKdpK5TAyMhLt3bsXlpaWSElJgYeHB0pClqqmkZqaShMn8q87R0dHjB49Os/vpKWlISkpSemzpKQkJCcn5/ndnj17omvXrgAAPz+/MmnT169fk6enJ6RSKerWrYuQkBCtKjzkBD09Pejp6an0ITMT7dYr+AlFAb/coOJwBA/5PlZzjcoNVlZWAHjFAU9PT9SqVQv+/v75ZmIrLGrWrCnavXs3JBIJIiMjMWjQIJQ1oqOlS5fi6dOnEIlECAoKynOKc+PGDWrdujWuXLkCAOjcuTPEYjEePXoEJycnhIeH52ofsVgsWrVqFQwMDBAdHV1kb/6iQlpaGg0YMABRUVEoV64c9u3bh4oVKxapsxFIwGxtbfHzzz+zkUbNmjUBaL8fS2X8TwsLC7WOV3E49evXBwBEx2muUVmxWS6fYmRkhGfPnmHXrl1o164dAODt27fw9/eHjY0NPD096dy5c0XGx9G+fXvRsmV84OrEiROYO3duUVRbJHjx4gUtWsRrA48YMQJOTk65dowDBw5QmzZt8OrVKxgaGmLbtm04efKk6ODBgzA1NUVMTAw6d+6MLVu25Hpv7OzsRL6+vgCAdevWlanp6uTJk5kE8saNG9GsWbMicTYpKSm0ZcsWat68ObVt2xY7d+5ERkYGTE1N4e3tjfv370Ow+d3nRdEiXim0QPj06RNb798+RzuR7SFdwPI/FOu+desW/fDDDyzSLpRmzZrRpk2bVLIstQGO45Q4d+UyHqUe/fr1Uzs3JiAggO1kr1KlCsnpRBmysvf5+vrmukEzMTGRrUIKOT8auKRihZyelACeqL4o6nzx4gXNmDGDKleurNQ/7OzsaNWqVUrbheQrg1pdbZ4zhD+/lZVV4e5pmzZtCJCTF2mhoUYGfENz4nONjY2lFStWMIpQoVSoUIGmTJlCjx8/1uoNViQ6MjU1VZsYu6RCLqdDAHKlFkhPT6cRI0awYx0cHJjuV1ZERUWRi4sLO7ZXr165cgwpZiDnxRhQ0nHjxg22ncDV1VXr+VuCVI1itr1YLKbu3bvTX3/9lW1nl8lkTO9LXRqK/JZaVtBMrpU2k4YWjOLPa2BgkGfqvJBl2aNHD5Usy65du9KRI0e0QgsKKBMd2dnZaZTPpSiRnp7OMrabNm2a40gkOjqavvrqK2bjbt265UnulFWBoVmzZjlyG3McRx07diSAp8PQJMdPUUJxw2TVqlW1FmtMTEzMVoyvQoUKNHnyZCU9spwg8GkbG2q+H2+dldmm7CR+8oW0tDRGFNSsrnZGN4oqg+rg2bNnNG3aNOYEhFKnTh1atmyZVrhP/vrrL+boevfurTXnpk0oKgTkRO+ZVctq0qRJanPYcBwnqH+yTphTot/du3dZBrN8C0Wpgkwmo65duxLkiakFpUvNDY8fP6ZJkyapZBM7ODjkO9v+3bt3bCSmSZkdbABVNuPbVVD+JBXI5U8JkGshaaCRLez481lYWOQ5uskJSUlJLGAGhRtibGxMo0ePLhBXbG6QS6AQkCmrW1rw33//sW0igwcPzrbtJ06cYBI8enp6tH79+gJd465du9h2BiMjoxxZAwVCeT09vVI3VZ03bx57FuRczhoBx3F09OhR6tq1q4rKq4eHR45cN+pgzZo17Hy/jtNMPxZI/Y2NjTXLCT5q1CjW2MJyabg0znQOipKuBQXHcXThwgX69ttv2X4oobi6ulJoaKhGaCU5jmPUjCKRSGVfUUmGMN0pX758tkP/tWvXshFHhQoVciVGUweXL19mcQMA9NNPP6nEF+Li4tgxHTt2LDUB5EOHDmXyQw0apJE2x8XF0cqVK1VilZUrVyY/Pz+1VV5zg0wmU+LZWeFTuH7czTmznatWrdLsvUtJSaFu3bqxCgoq5iYQbwF50yEWBO/evaOff/5ZhS/WysqK5s2bR2/evClUnXFxcWRvb886piaC1jKZjCIiImjZsmU0atQo6tGjB3Xt2pW+/fZbmj17NoWFhRWK6F0+3M/W5lKpVGl3cb169TT2pnr58qWSKuWgQYNUlDsVSdDyYnXMDampqXTixAmaP38+DR06lLp160bdu3enYcOG0YIFC+j06dMaCeg+efKEjQKbNGlS6NXSu3fv0tixY1U4b1q0aEHBwcEq9iosYmNjlQjrCsre2aROZlt9fX2187JISUmhnj17sooqmPIKDeo0cHDnTAUCkUikdRa49PR02rNnD7Vv317pRipuBC2okR48eMCmJ02aNCnwzvWPHz/SL7/8ouIcsytGRkY0fPhwunXrVr7qkkqlTB1CUUkB4J2nIr9t+/btNR7/SkhIoD59+rA6nJ2dleg/OI4jYSU0PwoRAiIjI2nSpEkqihzZlYoVK9L06dMLzEyXlJTEaDjMzc0L/LIRCP6FwLlQ9PX1adCgQSqpB5rGp0+fGA0MALKqCPp5lHr9eGS3TEoZADRz5kztjkxlMhkFBgYq5cdIxKDWDXlJiWVjQUGTQAtHg4Z9DapfQ/mm161bN0/FR03j9u3b5OXlpSLPIVBdFGT0cODAAXYeT0/PfBt9586dbBevUCzMeWmdYV+DRnUH9XYF2dVU7TgTJ05Um1tFvvRNAEi+JA6AD7wL9AkAaNSoUVpb0pXJZDRjxgxWl42NjZI44o0bN1iuj5wdL09IpVJatGiRyhTaxooPio7sBhrRFdTVCWSdRSrG2NiYVq1ale/AvzAtLYgQI8C/YAICAlQI/qtWrUo//vhjkWbUp6en04IFC5TspyfhKUPH9gYt9+aJtRaN4WmFs/bjGjVq0LFjx4quHz99+jRb+sOciq2tLQUEBGicxyY/+PTpE61atUqFOc3c3JwmTZqUbzIvgUcGAMmF+vJEWlqakmqigT7fMfJ6s/zyvbLGUoMGDfJs7/v379nwX57sB4CncBXoWcVisVamttkhODiYPeCmpqZ06NAhVq+3tzdvDzVUPj98+EBffvkls0UFU/W0xicPAJUvl2nDTp06qZ3iII9REACS33e1cePGDRo5cqSKMoOLiwtt3769WLmX7t27l61qRE6lRo0atGDBguJLDYmLi6OtW7eSl5cXOTs7U61atahq1apUv3596tixI/n5+dGxY8dKlOi6TCajEydOUK9evZRWAgBe0fLQoUNqtVcqlbKlUbFYTKdOncr1O+np6Up6QC6N1RvGKpaJ/TPbam1tnWsOxsiRIwngKVyFoOPWrVsZh42pqWmB3tSFwdmzZ1l2rDC15jiOPn78yPTHunbtmuOIMTo6WklA0LNj/m3Y88tMGzo7O+eZB6TIsf3111+rNTLKyMigHTt2sOmiUAwNDWnYsGF09erVEtMfAD6nKDg4mLy9vcnZ2ZlsbGyoatWqVLt2bXJ3d6fZs2fT4cOHP2tuao0gMjKSZsyYoTK9sbW1VYuQPSYmhuWtWFhY5LqaoJi56903/x1FsRjqZ05Psou7REREMGe6YMEC4jiOZs6cmeO0pijx5MkTFngHQN9//z2lpaUJJGztlgcAAAiCSURBVPYEgMLCwlTalpaWRo6OjuyYdVMKbr+lYzPvdfv27XN8wShybNeuXTvPGNe7d+9o/vz5jLJWKDVr1qRffvmFPnz4oOuwOvAkUcHBwUx4TyiC+HxukjO3bt1iMS1HR8dsVxYUYz6aSi/X1+PP99133ynVJ5PJWMesV68excTECFMqAnhG/+LmbY6NjWXSKQCfNPbhwwe2glK7dm2VOJVi7sv6Qjib7JxOdosY6enpbIRibGxM169fz9FmERERNHjwYBX98Pbt29OePXtK1AhfhxIEjuMoIiKCvvvuO5WHx8XFhUJCQrKVTVHcAjJixAilKUFcXBzj/W1ppxlngw2ZW0MAKNFYKlKlbtu2TcmJDhw4UONLrQVFRkaGEo91/fr1ac+ePWxkJqcmBcAH/oU8IXViXuoWgVPbyMhISf0AAOSE4ASAfv/9dxWb5aSLVq5cORozZky+VxR1+MwRFRVFCxcuVOFYrlKlCs2ZM0dleVXInAVAa9euZf8TMjwlYs11FKF8UY+vT773CR8/fmQxkrZt2yotufv7+5fIDrBmzRq2SlWxYkWW72VkZESRkZEEZMajqlbSvA0rluftI9fUAqAst5KV6/n169c0e/ZsplEvlDp16tCvv/7KJI90yB1llmO2sMjIyKCDBw8iMDAQZ86cYZ9LJBL06dMHPj4++OqrryCTydClSxecOXMG+vr6CA8Ph4uLCxo3boz79+/Dox2wb7Bm2xb6Gvj2Z/7327dvY+3atVi3bh309fWhp6eHlJQUGBkZITg4GIMGDSqx9/jYsWPk6emJ+Ph46OnpwcDAAMnJyejbty82b94Ma2trpKamYsEoYE5rzdY97QywdAdgbm6ON2/e4OnTp3BxcUFycjKcnZ1x9uxZGBoais6ePUsCZ7BUKgUAiEQidOnSBT4+PujWrVuZ5mrWNHSGUgN37tyhtWvXYuvWrUhMTGSfN27cGN7e3ujatSvatWuHV69eoWrVqggNDUXHjh35gzZop01V/Hg2tzFjxmDz5s1KBNpWVlYICwuDs7Nzib+/d+/epR49eiAyMlLp82nTpmHp0qXQkwDStVqqXE4AHhISgh9//BFPnz6FlZUV/vnnH5w5cwaBgYG4efMmO7x8+fIYPnw4vL29YW9vX+JtWxKhM1o+IE8HQGBgIB4+fMg+NzMzQ7du3bBv3z6kp6ejfv36ePz4MQz1gbRA7bTlmx3ArjNAxYoVERubySPZtGlTHDp0CLVq1So19/b9+/fk4eGB8+fPs8/Mzc0RFxcHxwbA1Snaqbf+z8Dj10C9evXw5MkTSCQS9O/fHydOnFCyqb29PXx8fDB06FCYmZmVGruWROiMVwBwHEenTp1CUFAQDh48mK08BwC0bghcnqSdNiy5AUxfr/xZz549ERoaivLly5e6+5qamkpjxozB1q1blT7/oRewobt26hy0C/jzVObfIpGIkYGLxWJ0794d48ePh5ubW7EQo5dF6BV3A0ojFB++58+f0/r167Fp0yZ8/PhR6biqFbXXhunNlf+uVasWi3/IdweXKvTo0QNA5mhDQJ1q2quzTnXlv4kIFStWxKhRozBu3DjUqVNHdOjQIe014DOEzuEUEra2tiKA3+S6a9curFmzBlevXgWgfYkORbx48QIvXrwougqLCHpaVA7SVzi3g4MDJkyYgMGDB8PExISR6eugWegcjoZgbGzMRj3u7u50/PhxxOct3VRgbHsJDAE/9P/hhxxkTEsxduzYgdjYWK3aUDh3o0aNcOfOHdGYMWMwZswY7VWog87haAOurq44fvw4bj3VXh035bMOBwcHrFu3rszFF/r27Uv79+/nbeiinToEG7Zq1Qr37t3TTiU6KEFFl0qHwqNly5YAgOfvtFfH5QfKdZU1CNd1+b726rj6ULkuHbQPncPRApycnKCnxw8eV9zWTh3n5ed1dXXVTgXFjDZt2gAA3kRrr444uYJxWbVhSYTO4WgBFhYWIg8PDwDA2gOaP7/fWYDj+PwfT09PzVdQAtC2bVvY2dkBAAb8qfnzu2/mfzo6OqJ58+a5H6yDxqBzOFqCt7c3AD6xbNUdzZ571V7+57Bhw0plzo06kEgkonHjxgEAdodr/vzHebl0eHt763JsihA6Q2sJcrUHhIWFwdgQSFmtmfO2CeSnU5UqVcLdu3dRrVq1MnsPk5OT6YsvvsCjR49Qpzrw7EfNnLfaLODtR6B58+a4dOkSDAwMyqwNSxp0IxwtQSwWi9avX49KlSohJQ2oMafw5+y3PTN2ExgYWKadDQCUK1dOFBwcDJFIhGf/AS4acNpfLOWdjb6+Pn7//Xedsyli6ByOFlGtWjVRaGgoDAwM8PoDUHNuwc/VPRjY+zf/u7e3NwYOHKiZRpZwuLq6siS8i3eBVisKfq6mS4B/5UvhQUFBaNasmc7ZFDF0DkfL+Prrr0X79u2Dvr4+Xr0HRF7A1NPqf3/rC8ByBnAkgv/by8sLq1ev/qziDlOnThUtWbIEAHDlAWAyMX+rf4uuAYY+YHlR69atw5gxYz4b++nwGeKff/5R0u821Ad96wYKmZ09QdS0gaCaVTKJngwNDWn58uWlUt9cUwgNDVXSlq9kBhrXJ2eSrTE9QWYmmTa0tLSk/fv3f7b20+EzQ0JCAk2cOJFpcKtbOnbsWOp0uLWFN2/eUP/+/VWUN3IrEomEBg8eXGA9ex10KNX48OEDLV68mJycnEgikWTbSWrXrk3e3t65knh/znjy5AnNmDGDGjVqlK39RCIRNWnShGbPnk3Pnz/X2bCEQDePLWYkJyfTkydPEBUVBalUikqVKqF27dqoUqWK7t6oidjYWHr27Bk+fPgAkUiEKlWqoE6dOjA3N9fZUAcddNBBBx100EEHHXTQQQcddNBBBx3yif8Db5PAyU99/C8AAAAASUVORK5CYII=;fontFamily=Times New Roman;fontSize=18;" vertex="1" parent="1">
          <mxGeometry x="179" y="384.9300000000001" width="157" height="71.86" as="geometry" />
        </mxCell>
        <mxCell id="fHaf_IxsQTMbm6-gp9eM-3" style="rounded=0;orthogonalLoop=1;jettySize=auto;html=1;fontFamily=Times New Roman;fontSize=18;" edge="1" parent="1" source="fHaf_IxsQTMbm6-gp9eM-4" target="fHaf_IxsQTMbm6-gp9eM-7">
          <mxGeometry relative="1" as="geometry" />
        </mxCell>
        <mxCell id="fHaf_IxsQTMbm6-gp9eM-4" value="Local Shadow Network" style="shape=image;verticalLabelPosition=bottom;labelBackgroundColor=default;verticalAlign=top;aspect=fixed;imageAspect=0;image=data:image/png,iVBORw0KGgoAAAANSUhEUgAAARwAAACCCAYAAACU73dnAAAABHNCSVQICAgIfAhkiAAAIABJREFUeJztXXdYVMcXPbtLFQQLiIoiNkRFjYoCQY0FJXZFDRpjNwYFOyrWEKNR1FjBbkgUiV2xRv2pGI1ij72LNYoiSG+77/7+ePuGXZaywC7NPd83H7C8fTPvvjf3zdy5cw6ggw466KCDDjrooIMOnwVkMhkVdxt00EGHzwg6p6ODpqFX3A34XMFxHD169AgXL17EvXv3EBUVBZlMhooVK6JOnTpwcnJCy5YtYWRkJCquNkql0uKqWi1kZGTQrVu3EBERgcePHyM6OhoikQgWFhaws7ODi4sLHBwcoKenV2w21EGHYkViYiJt2LCBmjRpQgByLZUqVaJp06ZRZGSkbqShgKioKFqwYAHVqFEjTxva2trSkiVLKDo6WmdDHT4vHD58mKpVq6bUIQz0QS3sQD2/BPVtC2rbFFTJTLnTSCQSmjNnDqWlpZWITsNxXLG0QyaTUWBgIJUrV07JPqbGIJfGoN6ufHFqCCpnpGxDMzMz2rJlCxVX23XQociQkZFBY8aMYQ+/SATq5QrChtzLlG9A5iaZnaZZs2af7WgnJiaGOnXqxGxhZAAa1T1vGw7pwjt14Xs9evSghISEz9KGJQG6ua2WkZGRQUOGDMGOHTsAAM3qAjen5+8cow4CW47wv9eqVQvh4eGoXbv2Z3PvYmJiqHPnzrh27RoAoLszcGRE/s7RaQNw6jr/e5s2bXDs2DGUL1/+s7FhSYHO4FrG6NGjafPmzQCAUd2BLb0Kfi59byBDCtja2uL69euoVKlSmb9/6enp1LZtW1y6dAkAsNwbmNK0YOeafwmY9xv/e6dOnXDixAlIJJIyb8OSBElxN6AsIywsjKZP54czhXU2AMB1B/SOATGxn/Dff//h1q1bP2mgmSUaEonEf/v27QCA1ROASU0Kfq4zNYBfqvEjncjISFSoUAHHjx8v8zYsSdB5dy0hLi6O7OzsEBUVhZZ2wLWpmjmv4lv6yJEj6N69e5m9h7dv36bmzZtDKpVi2NfAH301c96+IcD+c4CRkRHu3r2LunXrllkbljToRjhagrW1tf/u3bshEQNvFmruvGdqAM0fAu9igDdv3uDFixdl9g2dmprqf/36dVStBPzjo7nzPmgKVDwLJCZLIRaLERERUWZtWNIgLu4GlEVwHEeBgYEAAI92mj//DV/+59mzZ3Hr1q0yueISHR1NoaGhAIAJ/TR//h968j+Dg4OhW7UqOugcjhZw69YtPHz4EACwe5B26qhaif+5a9cu7VRQzDh48CDS0tKgrwfMctT8+Rd/BYhEQFxcHE6cOKH5CnTIFjqHowVcvHgRAGBipL063Foq11XWEBERAQBwbKC9OhrV4n+WVRuWROgcjhZw584dAMAX9bRXh9ARb9++rb1KihHCdWnT4TjaK9elg/ah27ypYZw7d4769eODDjWqaK8eYXn4/fv3MDU1JZGo7Cy0EBEb4dSw1F491hb8z/Pnz+P48ePk5uamy8vRMnQORwNISkqi7du3IygoCG3btmWf6xfRGmBiYmLRVFQM0ObOJ8GzJCUlwd3dHQ0aNMDq1atp2LBhMDc31zkeLUDncAqBJ0+eUFBQEKytrfHp0yeV/3+M117dvz0DRir8bWxsjPHjx6Nx48baq1TLiIyMxMqVK5VsmZCsvfpis/jphw8fYsKECZg1axZ8fHzIx8cH9vb2OsejQeiMmU/IZDI6duwYgoKC8Ndff4GIfwWLxWKYmJggISEBRkZGSE1NhW1V4LmWMjx8TwPLdgIikYi1QSKRIDAwEGPHji1193X37t00dOhQpKSkKH3ety2w/zvt1CnsrxLul4mJCVJTUyGTydgxnTt3xvjx49GtWzcdr44GoAsaq4mYmBhatmwZ2dnZoUePHjh27BiICJUrV8b06dPRrVs3JCQkQCQSwc/PDwDw/J322nNeHuds2jRzY5FMJsPYsWMxceJEkkqlpSa3ZMGCBfTNN98gJSUFQiyqRYsWAIALd7RX7+UH/M+xY8dCIpEgKSkJbdu2xcyZM2FhwQd4Tp48iV69eqF+/fpYtmwZxcTElBq7lkToHE4euHHjBo0aNYqsra3h6+uLp0+fAgBatmyJ4OBgvH79GpaWljh8+DAAYN68eZg8eTKMjY0B8FsRtIGIe/zPSZMmwdraGgBgbm4OAFi1ahV69uyJuLi4Et05UlNT6bvvvqM5c+aAiFChQgUQEczNzbFo0SIAQFSsdure/ipzuvbDDz9g2bJlAIDw8HDo6enh1atX+P3339GyJZ9/EBkZCV9fX1hbW+P777+nmzdvlmjb6lCKkJ6eTqGhofTll18qk2UZGNB3331HFy9eZA/b//73P5JIJIxrRSB4+v777wkAVbfIm7Mlv+WHXnx7rKysKC0tjXbs2MHa2LZtW/Z748aN6dmzZyWyY7x//17Jvoq/r1q1ijiOo5YtWxIAcmupeRs6NeTr6tixIwF8dvjAgQNZGw4ePEhERBzH0cWLF+nbb78lfX19peehXbt2tHv3bsrIyCiRNtahhOPNmzc0d+5cqlq1qtKDVbNmTVq4cCFFRUUpPVjPnz8nCwsLAkD169enT58+sf/L34AEgGZ8q9nOIhbx5507dy7rLB06dCAAVK1aNfrpp59IJBIRALK0tKR//vmnRHWIO3fukK2tLbPP1KlTqVGjRgSAmjRpwqaDf/zxBztmxzzN2W+jb+a93bdvH7NNYmIiOTg4EAAyNzenx48fK9nt7du35O/vr/J81KhRgxYuXEjv378vUXbWoYQiPDycBgwYQHp6ekoPUocOHWjv3r3ZxkNSUlLYG9jU1JTu3LmjcoyXlxcBcgehoc5iVxOMqzc+Pp7VeefOHTbSmjZtGu3bt49RcRoYGFBISEiJ6AxHjx4lMzMzAkD6+vq0ZcsW+vXXX5nNz549y9oplUrZyKeSmeZsaGrM19WlSxcVytFHjx6x9jk4OFBiYqKK3dLS0ujPP//MdgQ8dOhQunLlSomwtQ4lCImJibR+/XoVMnNTU1MaN24c3b17N9eHZvjw4ew7u3btyvbYhIQEql27NgEgE6PCdxTHBpntPHPmjEqdkydPJgCkp6dH9+/fp+vXr5O1tTX7zuzZs6k4pV9WrlzJnGLlypUpPDyc3r59yzr4oEGDVNr28OFDMjY2JgBUy6rwNqxWGYzj+OXLl9naIiwsjNls0KBBufIgX7t2jUaMGEGGhoZKz5GTkxOFhISUGB7qUo+kpCQ6c+YMrV69mvz8/Gjy5Mk0b9482rx5M924caNYH+zc8OjRI5o4cSKZm5srPSD29va0Zs0aUifQGhQUxL43bdq0XI+/ffs2m3aVMwIFTSpYR7G3yWzrmjVrsq3z06dPZGVlxcc93NyI4zh68+YNOTo6su/279+fkpKSivTeZGRkkDDaA0ANGjSgx48fExHRkCFDmKN/8+ZNtu06cOAAi59Uq1xwZ2NhztdvZGREJ0+ezNUGs2fPZu1duXJlnvb68OEDLVq0iGrWrKn0XFlZWdG8efNyvLbiRmJiIp05c4ZWrlyp1I83bdpE//77b/GudnIcR//88w8NGDCAvXVyKlZWVjR16lR68eJFsRtaJpPRwYMHyd3dncU2IFdD6NOnT54PnyLOnz/PHn43Nze1bsjt27fJ0tKS1dv+C/U7yXgPkESct7MRoBj32LNnDxERJSUlUf/+/dnnjo6ORdYBYmNjyc3NjdXt5uZGsbGxRER07tw59nlAQECu7QkLC1MK2n7rpr4N+7XLtJ86zgbgp3Pu7u5sxPj333+rZa+MjAzat28fi6kJRU9Pjzw9Pen8+fPFrhzBcRyFh4dT//79VcIIWUulSpXI19e36BcfXr16xW6AYqlsxsucuDqAHGqDjA2V/y+RSGjGjBmUmppa5Eb++PEjLVmyhE1rhGJhYUF+fn75dob//fcfk3mpVatWvrSOXr9+TV27dlVqRz1r0Lg+oN9mKHeQuUPlTknhWBsbG/rf//6XZ30ymYzFFmrWrMlGMzKZjObMmcPOZ21tTdevX9fqPXn8+DE1aNCA1enl5cVWdKRSKTVr1oyNeNLT0/Nsy40bN6hp06ZKdnFsAJo2ELR9Tqb9ts3mFS++qKdsw1atWtG9e/fUvubo6GgW3K5atSr9999/+bLX7du3ycvLS0XWpnnz5vTbb79RcnJykfeJR48ekaurq0o/tjAHtVTox1lldkQiEfn4+GQb09I4du/erTQFqWcNWu6d+1tlyjcgMwWJEwcHB7p//36RGFiYV2cdhbVq1Yr++OOPAjm/9PR01pGNjIzo2rVr+T4Hx3G0bds2tUTwhFKpUiXy8/NTa6on4Pr162wkJ3cyDNu2bSMDAwMCQOXKlVNapdEkwsPDqVKlSuyls2rVKqV6AgMD2TWeOHFC7TakpaVRQECAWiJ4QqlduzatXLmyQMvX165dIyMjIwJArq6uBYrJxMbG0vLly6lu3brKL+vKlWnGjBn0/PnzIukX69evV+oTDWqCVk/Iux8rShXVrVuXrl69qr32hoSEsIfX1Bi0Yar6Q1lsAHn1ymyslZWV1pxOWloahYSEkLOzs9JNNTQ0pKFDh9Lly5cLVe/YsWPZOeXTlgKD4zg6e/YsjR8/nhwdHZUeAolEQnXq1KFvv/2WgoODC/wWFNprYGCgsrz7zz//KE3xFi9erNFh/ubNm9n0x8zMjI4ePap07g8fPlDFihUJAHl4eBSo3oyMDNq7dy+NHDmSGjZsqDTdMjAwIAcHB/r+++/p4MGDhY5DBAcHs3OPHz++wOeSyWR05MgR+vrrr5WeUbFYTH379qVTp05pbbq1ZMmSTEdnBvozn2kGvp68nhrk9/TSpUuab+eBAwdILBYTAGpYK38NzFqEqVbVqlVzXB0oCF69ekWzZ8+mKlWqqExBFi1aRB8+fCh0Xb/99hs7r4+Pj8YNzXEcJSQkUGxsrMaCdB8/fqTKlSsTwCckZv1/ZGQkNW7cmF3XsGHDCj3tlclk5Ovry85pa2ubbbrA6NGjCQAZGxtrLMYnk8no06dPFBcXp5VOqxj03rZtW6HP//DhQ5owYQKVL19e6blt3LgxrVu3TqNifYqjSZfGhevHFctnOh2N0tu+e/eOPbANahaukUIxMuAb6+7uXuiH4vTp09SvXz+VoJebmxvt379fYx336tWrbEjdpk0btWINJQUbN25kdjl06JBKu+Pi4pTiSm3bti2wg05ISKBevXqxc7m6umabCHf58mX2Eps/f36psWVqaio5OTkxR/nvv/9qpO3x8fEUFBREDRs2VHqOzc3NadKkSSqj0/zizp07bAr9pYNm+rHgdJo1a6a5ZX9hVcPIQDONxAb5dExu0M2bN+e7oQkJCbR27VqlNzMAKl++PPn4+Gh8uvb+/XuysbEhAFS9enV69+5dqekgAB+YFZbE69SpQykpKSrtz8jIoEmTJinFO/LKQcqKly9fsgAwAPruu++yHS1xHEetW7dmsYDiWEgoDF69esVG0nXq1NHoRk6O4+jkyZPUu3dvpZVUkUhE3bp1o6NHj+Y71UQqlbLk1CoVNdePsSGz7/3444+Ft4H8gSMA9Os4zTa0s2Pmg63uKOTBgwc0fvx4liAmlEaNGlFQUJBWtKKlUilb2jQwMKALFy6Uqs4hICIigtnr559/zvEa1q9fz5LyzMzM6K+//lLrei9dusRS/UUiES1cuDDH723atIm15eDBg6XSnmfOnGF26tatm1byzSIjI2natGksziWU+vXr08qVK5W20OQGuY35oklnswE0omvmy14x471A8Pb21o5XzOIdDx8+nGNDZTIZHThwgNzc3FRyZzw8POjUqVNafWCnTp3K6ly3bl2p7BwCRo4cyaYCua2InDx5kipUqMDsLJ/754gdO3aw6Wa5cuVoz549OR4fExPDEiC7d+9equ25dOlS9mz4+/tr7VqSkpJo8+bNSqNHAGRiYqJWNnyXLl0IkGeoa6Efi+X5YXk9J7lCJpOxh272EO00tIUd31BPT0+VhkZHR9OiRYuoVq1aSkauUqUKzZo1S6MB55zw559/snrlnbVUIyoqiqU19OvXL9frefDgAdWrV49dv7e3d7bLyf7+/uxFUL169TyXSoWXmKGhYaHjEsUNjuNowIABbFR35MgRrV4Px3H0999/04ABA9joSiidOnWiAwcOqMwW5DlDBIB+99NOP/aQJ1S2atWq4Nf/8OFDrQ3DhPLjcLB5sFDvlStXaNiwYeyNKRRnZ2fatm1bke1JuXXrFkvUatWqVamLM+SE1atXM5vmlfcSHR1N7du3Z8d36dKFDeNTUlKEPU8EgFq0aEGvX7/O9Xz//vsv6yjyLQOlHvHx8SzQW6FCBXr69GmRXNfr169pzpw5KquytWrVooCAAJaMunfvXq33422z+fPr6empvV1GhTJx+/btNHjwYOhJAOlazRlKBT/wP9atW4fg4GBcvnyZ/cvIyAgDBw6Ej48PHB0di4zWMTY2lhwdHfH06VNYWlri2rVrsLGxKRO0khkZGdSyZUvcunUL9vb2uHnzJgwNDXO8trS0NBo3bhy2bNkCAGjYsCF+//13TJw4kSkq9O3bFyEhITAxMcnVRm3atKHz58/DxsYG9+/fz/P40oIHDx5Qq1atkJCQgGbNmuHChQtFdm2pqam0e/durFmzRqXvDB48GGKxGJs2bYK9DfBgthYbIu/Hly5dgpOTU57XrkKi/uLFCwBALSvgqYbblh3Gjh3Lfre1tcXYsWMxatQoWFhYiH7//fciaAEPmUxGPXv2xNOnT6Gnp4ddu3aVGWcDAPr6+qK///6b2rVrhwcPHmDVqlW5Hm9oaCjiOI4aNmyIadOm4f79+3BxcQHHcQCAmTNnYuHChRCLxbnaaNu2bTRkyBAAwK+//lpmnA0A2Nvbi/bt20ceHh64efMmvLy8wHEc5WUTTcDIyIjVcenSJVqzZg127tyJ1NRU9pIAgNrVgAfabgyA//77T63jVChG09PTAQBGBpptUG4wMDCAp6cnzp49ixkzZogsLCyK/KH09/fH0aNHAQBLlixBhw4dykzHENCuXTvR4MGDAQDz589HXlMhsVgs8vX1Fc2ZMwcikYg5m9GjR2PRokWivDpWfHw8TZs2DQDg5uaGAQMGlDmbenh4iAQO623btmHtWm1OC7KHk5OTKCQkRBQaGoqGDRsq/U+b6q8AYKDP/0xNTVXreBWHY2TEtzA5TXONygvp6enYuXMn6tSpg379+tGZM2eKdEftgQMHaMGCBQCAQYMGYcqUKWWuYwhYsmQJTE1NkZiYiOnTp+d5/LJly2jhwoUgIojF/OOyefNm+Pn55bkk7O/vj3fv3kFfXx+rV6/WzAWUQCxYsABubm4AeI7pomRYTExMpLVr11KjRo1owIABuH//vtL/47UoswMA6Rn8TxMTE7WOV3E4devWBaBdxYHsYGRkBJlMhr1796JDhw5o0qQJ1q5dq5UcG0U8ePCAhg4dCiJC06ZNsXnzZm1WV+ywtrYW/fjjjwCA0NBQKDLsKSI9PZ1Gjx5Nvr6+4DgOjRo1woULF9C6dWsAwOLFi9G/f3/ktHv47t27JDiZCRMmoFGjRmXWievp6Yn+/PNP2NjYQCqVon///nj79q1Wn9vHjx/TxIkTydraGuPGjcO9ezyrfvny5QGAvRyevtFmKzIhEPnnBRWH4+joCAAgLZpr1jn+p52dHezteYFnQ0NDzJ07Fw0a8GLSd+/exbhx42BtbY0JEybQgwcPNN6i+Ph46tu3L+Lj41GxYkXs37+/TMUYcsKECROY3X18fJB12fvjx4/k7u7OnK+7uzsuXLgAZ2dnUXh4OAYOHAgA2L9/P9q2bYtXr16p3JsJEyZAKpWiWrVqEBxcWYalpaVo7969MDAwwNu3b/HNN99A09tgOI6jI0eOUNeuXcnOzg6rVq1CXFwcJBIJPDw8MGrUKCQkJAAAhg8fDgB4ql5opUDYIg/yGhoawsHBQa3vqDicWrVqwcrKCgAw8aTmGqeIvWf5ny4uLjhw4ADKly+PuLg4HDhwAFevXsXJkyfRu3dviMVixMfHY/Xq1bC3t0fnzp0pLCxMI/ukOI6j4cOH4/79+xCLxQgNDUXdunXLvLMB+IDwmjVrAAC3b9/GunXr2P8ePnxIzs7OOHPmDADeIR05cgQVKlQQAUC5cuVEoaGh8Pf3BwDcuHEDrVu3hiKP765du+jUqVMAgKVLl8LMzOyzsGurVq1EQUFBAIBz585hxowZGjnvp0+faMWKFWRnZ4fu3bszTTQLCwvMnDkTkZGRGDNmDIKDgwEAAwYMwJIlS9goJ/CeRpqhgp38I4LWrVvnuuKZJ2bMmEGAnAdDi5nG4eHhBPAxFOEzT09PFr95/vw5+fn5sU2kUMg5WLx4caF2gv/yyy/sfAsWLCgTuSH5hbBfztzcnKKioujUqVMsnV5PT4/kVKo54s8//2RcvsbGxrR7925KSkpiNJtyyZrPDsJueAAkTyItEO7evUtjx44lU1NTpee/RYsWFBwcTCkpKUREFBkZybiHGjVqxMIQcuoPnp5Wi/34999/L9x9joyMZFmkms42bmXPN7Jx48ZKgWFFNjo5iz9DSkoK/fHHH0JGIyuGhoY0fPjwfLPkHz9+nO1Y7tOnT7FTPhYXXrx4wbh4vvzyS7bz3tzcXG1SrIiICMajDIC++uorgnxrxOcqFpeSksI2zZYrV45u376tth2kUint379f0MtiRV9fnwYNGqSypy8lJYWaN29OkO9rUgw9nD59mn1/8zTN9uNervx5LSwsst0UnG+MGTOGf3DEmmvkL99nGjAr05xUKmVUCRKJhOTGUsGlS5do6NChbMu9UJycnGjbtm15ZgY/e/aMvQ3s7e0Lv/GslEO+oZOVunXr5ouGE+AdV1bqTzkB2GeLFy9e5KhZlh2io6Np8eLFKlt6qlatSv7+/pRTEFpRPUSeXczAcRx16tSJd0blNNeP/5iZ2b6sTI4FRlxcHKNmKAxTvlC2z8kUcMtODgTgN/gJNIwWFha5kjO9f/+efvnlFxWWfEtLyxz3XCUnJ9MXX3zB3gZFRXlaUhEfH6/Eh2Nqaqoi9pefcymm27du3brA5yor+N///sdG0r169co2jeDGjRs0cuRIFTpcFxcXCg0NzZV/Sb6pmACQPAyighcvXjCSL01NrQReq6+++kqzu+X//vtvtrepMJK166dkOpsGDRrkSj5+8+ZNtpfJ0dExz+FaRkYG7d+/n3lyoWRH2zh48GCCfMOdtrh88wuO4yg6Opru3r1Lt27dolevXhWJdOzz58+z5VbesGFDgepW1HISiq2tbb6mEwWFTCajt2/f0u3bt+nOnTv07t27EiNTtHjxYmYPIVaYkZFBO3bsUCEzNzIyouHDh6vFGXzx4kU2yu/UqVOuCym7du1ijq8wZHo75mU6m+rVq1NkZKTmbXzixAkWGJSI8x/T6e6caVA7Ozu1mO8Vd2uPGDFC7RjLvXv3yMfHRyXI1rBhQyWZlFmzZhXrw5iamkrbtm2j3r17q2zCg/zBa9OmDc2fPz/fSgHq4MKFC6xesVhMAQEBAg0pVapUKV9qFAAfR5BvxKXWrVvTpk2bWDyofPnyWtlNHRsbSytWrCA3NzcVmk6A31Dp7u5OgYGBxTpt5jhO4G0mkUhEQ4YMoerVqyu1tWbNmvTLL7+ovQgSFRXFBA5tbGzU+l5ISAhzOob6oIAf8tePv+mQ2d7q1avTo0ePtGfTv//+m02vAFAFU9DkAbk3sP9XynpKbm5u+eo8U6ZMYd9du3Ztvi4uJ9pGyG9Qdjy7RYG0tDRauHChEoF5XkVPT48GDRqkMVqO7du3sxeIiYkJ7d+/nwDgyZMn7PP8xl9++ukn5ryEAP6ZM2dYrEwsFtPKlSs1EpyPiYkhb29vFemV3Er58uVpypQpxeZ4Tp06pUIeB4Dat2+fo5R0TpBKpWwnv6GhYb4WTA4ePKj07FUy48nR89OPXVxcimZnfFxcHI0ePZp5ScViYQ6ysVKWhRGKubk5BQUF5XuIm5GRwRj39PX1qSDp4hzH0c6dO1VkWCEfhu7fv79Ipi8AT3shxI+E0qE5aPEY1Zu8aRpoSBdlbSBzc3MKDg4ucKflOE5Jl6pGjRp048YNpXPNnTuXvYnVlcF5/vw5iz98//33St959OgR2dnZsTq9vLwKxQl97NgxpdGBnoTnZFkzUdWGK31APb/MJImCfIqXnUSyNpCamprtyirAxycLKrWiSFIvZ1DMF96/f0+DBg1SIrUDeEUGywo592NTU1MKCAgoeiXOyMhImjp1qkqwNmtxdHSkVatWFWprwvv371k91apVy/f0Ii0tTYn4evTo0SqjC2E4mx3ht6YQHh6u9Eb+rrP6Q9klXrw8j/DdGTNm5NvpJCcnM8IogOf5yc6WSUlJbCTr4uKi1kuib9++/Nsyh6lYTEyMUnytU6dOBeICXr9+vZKjmfGt+jac1D8zhigWiykkJERr9/rVq1c0a9YsleesTp06NHToUPb38OHD830f5Rr2BIDkuT4FxuPHj2nKlClKKQ3ZFQcHB1q9enW+dNG0Ao7j6OnTp7R//35au3YtLV++nDZv3kzHjx/XiDSLgCtXrrARSn6FyORvXAJAoaGhBGTGTwRHJBQDAwMaMmSIxvV2zp49y5yNhbn6nSRrads0s61+fn5qt/G///5TessOGDAgV60rReKmvBK65LzHBCDXJMH09HT64Ycf2LF2dnb5igHIA9kEFE6uqG71TKezfft2jd/nrNK5IpGI3N3d6dChQ8x5K45Q5E5ULdy9e5fFJjVJDCf043379lFQUJBSP/748WPxOpnigqIulJyqMk8oSqTIVQlUcOXKFRo+fLjKlEtQ6CxsQtP79+/Zm04T/NBft85sY9aci+xw48YNJYXKOXPm5Pk1iNxHAAAgAElEQVRW5TiOOnfuzLe5SpUc80fS0tLYdKl58+Z5joY4jqOVK1eyKXnFihXVmt5cuXKFsQU2q1t4G9rb8LYwNDTMd75RViQlJdHGjRtVcpDMzMxo/PjxJGfPVELWUIGc5D5XxMXFMcnkvNJFdNAQFJUv83rzRkREsCXD9u3b5xmn+fDhQ7ZJV4IGeUGlWIVpjKF+4TuKUIRMbUtLy1yngQcOHCATExPWufIzjbh//z57U+fkrIXlXpFIlK/42pEjR9iqkp6eXq5yQampqdSoUSMCQDWraM6GlhUyXywFieE9e/aMfH19VVQV7O3t1VoVi4qKYi8Ca2vrXPOVOI4jYdoqkUjo5MmTOmdTFEhLSyMXFxfWgXIKur17944tGdaoUSNfyWdSqZTCwsLYG14oYrGYevfuTSdPnlR73i3vhATwcRhNdRZskDuwXJxBQEAAG0lUqVKlQBI306ZNYw951lya169fs+H9kCFD8n3u27dvKzl3X1/fbIORa9asybwPGrQfNmTe2/zINp84cYJ69uyptHAiFoupV69e+XYE6r4UFy1axOqS/65DUeHNmzdMA8nGxkblDZ+RkUHt2rVjTqkweuIPHjygCRMmqCxnNmjQQK0g2sCBAwkA1bPWfGeZNpBvi7m5uVJQPi0tjRRT3R0cHAo8OouPj2crQu3bt1dytMK1mZmZ5ZhynxeioqLoyy+/ZG3t2bOn0rVwHMemER7tNG9Dt5aZo5y87LBmzRqyt7dXeg4qVqxIvr6+9OzZswI/Y4qBcHlsRwknT55k00n5KEeHosa5c+fYcL9jx45Kb4YJEyawG1gQZc/skJCQQOvWrVNR+zQ1NaWxY8dmm9MTHR3N2rjCRwtv5w2Zy71btmwhoU7B2QK89lNh807kgXYCQDt27CCAX3ETPlu+fHmhzp+SkkJC9jfAS8cK8QnFerRhP8VRzvXr11Wu4+HDh9mKLzZt2pQ2bdqUa+BdXXAcRyNGjGDnlq9CAVDei9WgQYPPfs9fsUJRnF14M8hjFARAWBHRKDiOozNnzlD//v1VtIE6dOhAe/bsYc5PKc1fS52l/RdgU5r79++zPWgAaPLkyRpJ7ec4jjkxa2trio2NJQcHBwL43f6ayGHiOE5I+ScAZGVlRREREYLAnEZjN1mLoJEtOE6ZTEaHDh2iLl26KOWp6Onp0YABAygndsTCIDk5mVq0aEEAn4h59+5dSk1NZbvNTU1NCx3cLkkolcRI8jcD/vjjDwBAQEAA/P39kZKSAmdnZ5w9e7ZwhEB54NWrV7RhwwZs3LgR79+/Z5/XqFEDXl5eiI6OxsqVK2FXE3g0RzttmHUO+CWErzMxMRGfPn2Cnp4egoKC8MMPP2js2m/evEktWrSATCZDp06dIBBrnT59Gh07dtRYPbt376ahQ4ciJSUFRkZGsLe3x7///gvPjsBOT03VooyuvwHHLgEeHh5wdXXF2rVr8fRpplaJpaUlxowZAy8vL9SsWVNrz1NkZCS1bNkSMTExsLOzg4uLC3u2d+/eXWbI5xMSEqjUXkhycjK1adMG169fh0gkAhHBysoK169fh7W1dZFpA+3duxeBgYG4ePEi+1wsFoPjOPT8Ejg0TDt1//EcGLYo829jY2MMGjQIderU0XhdR44cUbq+Jk2awNNT817gzZs3CAkJYTSZADBvGDD/S41XBQCYdBJYuSfzfglo1aoVxo8fj2+++UZJjkWbOH78OH399dcgBW5fX19fLFu2rNT20ewgSkxMJFNT01J5Uc+ePaMGDRogIyMDIpEIR44cQbdu3YrlWi5dukTTp0/HuXPn2MM7pAuwrZ8WK/1Bi+cuIVjuDUxpqp1z/xQB/BjM/y4SieDk5ISAgAB89dVXxfIMjR07lgS617p16+Lhw4fQ09MrlX0zJ+iVVmcDABs3bkRGBq9TQUQIDAyETCYjiURSZNf0+vVr2rBhA3r37o1375SlLlLTi6oVQIUKFVCtWjWIRJq/9JSUFERGRrK/a9asydQBNI2oqCh8/PiR/Z2WoZVqAAApClJIRISIiAj07dsX06dPp3HjxsHW1rbInqMPHz5Qy5Yt2d+RkZEIDw8vquqLDCrKm6UFe/bsof79+wMAWrRogevXr+Po0aP46aefiqT+8PBwCgwMhK2tLaRSKfu8Y8eOMDY2xpEjR/AySnv1L/0XmAaeMT8tLQ2fPn1CkyZNsG/fPlhaWmqso8hkMmrVqhUiIyNhZGSE1NRUiMViXL16FeXKldNYPYmJiTR48GAmd2JmZob4+Hi80KJc0Ut5+K1169aoXLkyjh07hpiYGCxZsgTLli1Dnz59yMfHBx07dsxTYbQwkEql5O7ujpcvX8LAwABWVlZ49eoVBg4ciBcvXlCtWrVK7aAgK1RUG0oD7t27R4IMRvPmzXHu3Dl88803AHhFSfkqkcaRmJhI69atIwcHB2rfvj327NkDqVSK8uXLw9vbG/fu3cPp06dFHh4eAIB/n2ijFTwuy/XOOnTogAkTJgDglQKcnJygyVWNjRs34vr16wB4BQaRSIQXL14gICBAU1Xg5cuX1KZNG4SFhQEABg8eDEEh9LIWdWoFG7q5ueHYsWOiR48eYeLEiTAzMwPHcThw4ADc3Nzg4OCgVY202bNns2D8qlWrcPToUZQrVw7R0dHo168fNMIZXAJQKrnD4+Li2B6eypUrs8S2hIQEtmRrZmamUR2rhw8f0oQJE8jc3FxpOdze3p7WrFmjkiMhpy7V6rK4sKQr5yTGunXr2HK9ubk5HT9+vNDXHx0dzThtevfuTQAgbMI0NDTUCC/KpUuXWDKnSCRirHhCDpBYg5zaOeXhHD58WOk6EhISmJolFO63mZkZTZw4UaPkU4qbZeVJmwAAed4TAYXfGa5DAcFxHPXq1YuQw76Sx48fM6fQsGHDQiVLyWQyCgsLU8nJkEgk1KdPH/rf//6X47k5jqOWLVsSIN9wqeGOsnkaWAd98uQJa8fJkyfZ9UskkjxlXvKCQKRvZGTE6CQVnZD8XhQYO3fuZFw6gsyM8L/4+Hi252rmYM3b0Lsvb8MqVarkuPOa4zg6deoU9enTR4UHqmvXrnT06NFC5Tvdv3+fXWOLFi1UNgtPnjyZ1VcQ7hsdCon58+ezGyDfPKiCw4cPMwfRr1+/fHOOREdHU0BAANna2io9YJaWljRz5ky1d+oGBwdrbZRTz5o/b/fu3VXakjUJ0MfHp0AJelevXmWd7Mcff1T6viJ5d0HpQ3/66Sd2n6pVq5Ytc9348eMJ4BkmNW1DgdxMTkqWJyIjI2n69OnM2QqlXr16tGLFijxVGbIiISGBMVJWqlQpW37g9PR0lnhpYGBQqK06OuQTR44cYR1Azk+cIwTKS+TimLLi6tWrNHz4cEYaL5TWrVvT1q1b880/kpKSwjq+JvdTTeiXObo5f/58tm3Kus3B3d09Xx2C4zhydnYmAFS7dm2VN69UKmVaSPXq1cuXbVJSUujbb79lbWvevDllJxUM8J1c4BLq7qw5G37VjK+7QoUK+SZ1S05Opi1btqiwN5qYmJCXlxfdvXtXrfMJHNtisTjX6e/bt2/ZnraaNWtqlGtKhxzw+PFjqlChAkGeUp9X8E4mk7Gpl1gszlHULS0tLVsyLiMjIxo2bFih3yjnzp1jb/EeLoXvKBumZrZRPtzOEWlpaTRy5Eh2fKNGjdSOuSjyDwmcx1mhuBtermKaJ969e8ccGcBvSExMTMz1u4rbWPLD8pdTGdcn04Zbt24t8P3lOI7OnTtHnp6eSqRbAL/Hb//+/TnScS5dupQdq47q6z///EP6+voE8NzgRU7z+TkhMTGRBYPNzc3VDth9+vSJ6tevz4asirt6BRrIrIoJtWrVokWLFmn0LSLwBAOgboV4S6/wyWxn8+bN1do8yHEcLV26lDk9CwsLOnfuXK7f+/TpE7PL119/neuxw4YNI4BXl8yL5P3WrVtKlBTqUqXKZDKmKAHkTd6fWxnTM9OGgwYN0pji6uvXr2nu3Lkqz5ONjQ0tXrxYiXr19OnTLLjfq1cvtdug6Hjzw/hYJpCRkUEnT56k+fPnk4eHBzk7O1Pz5s2pXbt2NGTIEFq9erXGZF49PT3ZFOLgwYP5OuedO3cYCdUXX3xBx44dIw8PD6XNlyKRiNzc3OjAgQNa0TLiOI4UFShqWOa/o3RplfkQf/HFF/mWcQkLC2N2MDAwyJUDRthxb2BgkKdzf/fuHdtNLScbyxaHDh1iwVEDA4N8a1GnpKQIzo8AUAu7/NuwsW2mDfv161coMveckBN9rZGREY0cOZKOHTvGGCDVUeNUBMdxAvcQAarKtQVBWloanThxghYuXMj6ccuWLcnV1ZVGjBhBQUFBdOPGjeKTwo6OjqaFCxcq0VbmVpycnCgkJKTAu4qXLVvGzpU1cKkutm3blm3bBBpITS6f5wRhR7Ti0PuLeqCNvrl3kn7tlCU63N3d8+1sBNy4cUOJ+N7Pz0/Fwd66dYs5Y3XfoitXrmTnzG7l7tdff2WxNwsLC/r7778L1P6UlBQSRlRC6eyYu/3+nJcZrxHK2LFjteJssuLy5cs0ZMgQFUlqgE8pyKqYoQ6SkpKoWbNmBBROOfbt27c0d+7cPAnUhdKiRQvasmVLvvjEC429e/eqKh5U4cmRpnzDC+R59+WJjbLKTLRu3TrfW+xPnTrFHv4ePXrk28s+ePCAfHx8VPhMqlatStpM4soN165dU+G/BXjKy2Z1QS3tQLZVeckOxf+bmZnRxo0bC/2mefv2LbVu3Zqd18PDQymGIgSaa9SokWdsRUBGRgab8jZs2JB15vT0dFIksW/YsKFG8nbCwsKoWrVqKjasYcmPfJrXl6vEZvm/jY1NjrE8bSIqKooWLFjARphCqVatGv3000/5JjB7+vQpozbNb+oHx3H022+/qeST1bAE9WnDa1TN+g403oOnP8naj5s0aaK2fFCBIZVKlR4cA33QyG7qDWM7tlD26ury6iqSD9WrV0/toadUKqX9+/eTm5ubCp+JML+WSCRa4TVRFzKZjI4dO0bdunXLVuNLsQiJhZqU6EhOTqZvvvlG6e31+vVrQcWAgEyyLXUhJ0MnAPTrr79STEwMIwoHQF26dMn3snFuSE1Npa1btyo5z5yKq6sr7dixo2jfzlmgGIQX6G+Foq+vT4MHD6aLFy+q/UI5evQoe7779++v1vdSUlIYNzLApwWM7a1eP1Yk75dIJLR69Wrt2FIqlSoNY1vZq9fArEUgrRaJRCSf4uRqGCFpzsTERC2VzA8fPtCiRYtUSNCrVKlCs2fPplevXlF0dDTLralSpQq9fv262B5AAfHx8XTq1ClavXo1zZkzh/z8/GjJkiW0e/fuHJeKNQGO44QpKhv1CaNXuaPINwTaURMTE6pduzY7t7e3t1ZXVd6/f08HDx6k5cuX08yZM2nWrFm0YsUKOnLkSImQObl69SpLtWjXrh1lZGTQv//+S6NHj2ZJj0JxdHSkP/74Q600A8XUD/mqV47IGgPr1KJg/biGZWZbf/31V83bdvr06ayC/Ii3ZVcEeQ6RSJRrlq4iJ68i5WJ2uHz5Mg0dOlRF5sXZ2ZlCQkJU3mrXr19nN9/JyUlj2j6lFaGhoUq2k0gkBZZBfvXqlVIOk0QiIfnKymeL6Oho9hKsXr06vXv3TskeHz9+pKVLl2abZCq8KHM6t0wmExI/SSwW0+nTp7M9luM4EhZeADkfdiH6sVPDzHZqVFDw/PnzbNg2qFPhGikUIUPWxsYm22mCPBWfNwyvGqCCnCRUjYyMaMSIEXnOMRWDyPLU/c8aO3fuVLLjwoULCxQr2rhxo9Lqn1begKUIMpmMqX/o6+vnqpwhqIW4ubkp3QuJREL9+/ens2fPZntPYmJiqE6dOsxJZeegFHmpC+tshCJIFZmbm2tmJC6VShljft3qmmmkUIRVF3naOsP58+dzTW568eIF+fn5qQSua9euTUuWLMnX6o2QMg/o9qgInUJxBW3IkCFqj/5kMhkp7vkR7mGzZs2KTLe9JGLWrFnMJvkZ6d27d4+8vb2ZDI9QmjZtShs3bqSkpCSlc928eZNNzbKO2mNiYliAuU0TzfZjQX5a2NRbKMjzXfiiwUZiQ6bESbly5Sg2NpYAXo5WWHmoVauWkvM4efIk9enTRyV3xt3dnQ4ePFig3Jn09HRq27YtAXxeiDrqh2URe/bsYTbdsGGDUoLdl19+maemV3x8vNJ32rZtS4r615/rlCosLIzNDgqi2wXwrAirV69mzAhCyU6eRlFAwMvLi30eEBDAvwT0NN+PAydmtqnQdChdunQhAOTYQPMNxQZejB4ArVixgtLT08nV1ZVNi65du0aCFpCwuU0o5ubmGqMHUNyjYm1trTK/LutITk4mGxsbAviVHI7jSCqV0tSpU5m9bW1tc4zpPH/+nJo0acKOHTZsGIuZCashFSpUyFUdtCzi0aNHbNm5WbNmhZaTkclk9Ndff1H37t2VVl5FIhH17NmTTpw4QRzHkeKoPTg4mDiOY7Ghoe7a6cdVKvL1yZNFC4bExEQ2mtg8TTsN7deOb2iHDh1o3LhxzFCLFi2icePGsaxUoTRp0oTWr1+vdm6Iurh48SKbArRr165IEsJKCuS7pEksFqskoW3cuJFNscqXL09Hjx5V+v+FCxdY0phIJFJRhIyMjGQB5M+JyyUxMZHpl1WsWFEjeUeKePLkCU2ZMkUlj6ZBgwa0cuVKtk/N0NCQ/vzzT63NUoTi68mfX/7iKhgUcyq01dC1k8EMI9SVNXtZm1pAitiwYQOrMyfp3LKGJ0+eMNvLNdtVcPr0aTb/F4vFtGrVKuI4jrZv386+a2JikmOKvbBsKxKJ6NKlS5+FXRW34RSUtkMdJCYm0vr161nCpVBMTU3Z7nqBRsPUWHv9GBsy61Y3zUSFK3X9+vXk5eWFiuWB2GUatFJW5KA4ULVqVXz//ffw8vIqMrmX0aNH0+bNmwEA27dvx+DBg8sMh2x26NGjBx0+fBgWFhZ49OgRKlWqlO31Pnr0iHr06IFHjx4BAFq2bIlr164BAKytrXHo0CG0aNEi2+8mJydT48aNERkZiVatWiEiIgJFSW5f1Fi+fDlNmTIFAODv7w9/f3+tXyvHcXT27FmsWbMGBw4cUJK6EeDUCLg0UYuNkPfjM2fOoEOHDnleswqn8YcPHwAAVStpuGF5wNXVFaGhoXj58iV+/vlnUVE5GwAIDAxE69atAQCjR49GQfa5lBYcPnyYDh8+DABYuHBhjs4GAOzs7EQRERFo3749ADBn07x5c1y+fDlHZwMA5cqVE61cuRIAcOXKFQQHB2vsGkoawsPDafr06QCA7t27Y968eUVSr1gsFnXo0EG0b98+UWRkJGbOnInKlSsrHWNqpN02SOQeRFEQMjeoOBxBiEsLaiO5N0QshkQiKdpK5TAyMhLt3bsXlpaWSElJgYeHB0pClqqmkZqaShMn8q87R0dHjB49Os/vpKWlISkpSemzpKQkJCcn5/ndnj17omvXrgAAPz+/MmnT169fk6enJ6RSKerWrYuQkBCtKjzkBD09Pejp6an0ITMT7dYr+AlFAb/coOJwBA/5PlZzjcoNVlZWAHjFAU9PT9SqVQv+/v75ZmIrLGrWrCnavXs3JBIJIiMjMWjQIJQ1oqOlS5fi6dOnEIlECAoKynOKc+PGDWrdujWuXLkCAOjcuTPEYjEePXoEJycnhIeH52ofsVgsWrVqFQwMDBAdHV1kb/6iQlpaGg0YMABRUVEoV64c9u3bh4oVKxapsxFIwGxtbfHzzz+zkUbNmjUBaL8fS2X8TwsLC7WOV3E49evXBwBEx2muUVmxWS6fYmRkhGfPnmHXrl1o164dAODt27fw9/eHjY0NPD096dy5c0XGx9G+fXvRsmV84OrEiROYO3duUVRbJHjx4gUtWsRrA48YMQJOTk65dowDBw5QmzZt8OrVKxgaGmLbtm04efKk6ODBgzA1NUVMTAw6d+6MLVu25Hpv7OzsRL6+vgCAdevWlanp6uTJk5kE8saNG9GsWbMicTYpKSm0ZcsWat68ObVt2xY7d+5ERkYGTE1N4e3tjfv370Ow+d3nRdEiXim0QPj06RNb798+RzuR7SFdwPI/FOu+desW/fDDDyzSLpRmzZrRpk2bVLIstQGO45Q4d+UyHqUe/fr1Uzs3JiAggO1kr1KlCsnpRBmysvf5+vrmukEzMTGRrUIKOT8auKRihZyelACeqL4o6nzx4gXNmDGDKleurNQ/7OzsaNWqVUrbheQrg1pdbZ4zhD+/lZVV4e5pmzZtCJCTF2mhoUYGfENz4nONjY2lFStWMIpQoVSoUIGmTJlCjx8/1uoNViQ6MjU1VZsYu6RCLqdDAHKlFkhPT6cRI0awYx0cHJjuV1ZERUWRi4sLO7ZXr165cgwpZiDnxRhQ0nHjxg22ncDV1VXr+VuCVI1itr1YLKbu3bvTX3/9lW1nl8lkTO9LXRqK/JZaVtBMrpU2k4YWjOLPa2BgkGfqvJBl2aNHD5Usy65du9KRI0e0QgsKKBMd2dnZaZTPpSiRnp7OMrabNm2a40gkOjqavvrqK2bjbt265UnulFWBoVmzZjlyG3McRx07diSAp8PQJMdPUUJxw2TVqlW1FmtMTEzMVoyvQoUKNHnyZCU9spwg8GkbG2q+H2+dldmm7CR+8oW0tDRGFNSsrnZGN4oqg+rg2bNnNG3aNOYEhFKnTh1atmyZVrhP/vrrL+boevfurTXnpk0oKgTkRO+ZVctq0qRJanPYcBwnqH+yTphTot/du3dZBrN8C0Wpgkwmo65duxLkiakFpUvNDY8fP6ZJkyapZBM7ODjkO9v+3bt3bCSmSZkdbABVNuPbVVD+JBXI5U8JkGshaaCRLez481lYWOQ5uskJSUlJLGAGhRtibGxMo0ePLhBXbG6QS6AQkCmrW1rw33//sW0igwcPzrbtJ06cYBI8enp6tH79+gJd465du9h2BiMjoxxZAwVCeT09vVI3VZ03bx57FuRczhoBx3F09OhR6tq1q4rKq4eHR45cN+pgzZo17Hy/jtNMPxZI/Y2NjTXLCT5q1CjW2MJyabg0znQOipKuBQXHcXThwgX69ttv2X4oobi6ulJoaKhGaCU5jmPUjCKRSGVfUUmGMN0pX758tkP/tWvXshFHhQoVciVGUweXL19mcQMA9NNPP6nEF+Li4tgxHTt2LDUB5EOHDmXyQw0apJE2x8XF0cqVK1VilZUrVyY/Pz+1VV5zg0wmU+LZWeFTuH7czTmznatWrdLsvUtJSaFu3bqxCgoq5iYQbwF50yEWBO/evaOff/5ZhS/WysqK5s2bR2/evClUnXFxcWRvb886piaC1jKZjCIiImjZsmU0atQo6tGjB3Xt2pW+/fZbmj17NoWFhRWK6F0+3M/W5lKpVGl3cb169TT2pnr58qWSKuWgQYNUlDsVSdDyYnXMDampqXTixAmaP38+DR06lLp160bdu3enYcOG0YIFC+j06dMaCeg+efKEjQKbNGlS6NXSu3fv0tixY1U4b1q0aEHBwcEq9iosYmNjlQjrCsre2aROZlt9fX2187JISUmhnj17sooqmPIKDeo0cHDnTAUCkUikdRa49PR02rNnD7Vv317pRipuBC2okR48eMCmJ02aNCnwzvWPHz/SL7/8ouIcsytGRkY0fPhwunXrVr7qkkqlTB1CUUkB4J2nIr9t+/btNR7/SkhIoD59+rA6nJ2dleg/OI4jYSU0PwoRAiIjI2nSpEkqihzZlYoVK9L06dMLzEyXlJTEaDjMzc0L/LIRCP6FwLlQ9PX1adCgQSqpB5rGp0+fGA0MALKqCPp5lHr9eGS3TEoZADRz5kztjkxlMhkFBgYq5cdIxKDWDXlJiWVjQUGTQAtHg4Z9DapfQ/mm161bN0/FR03j9u3b5OXlpSLPIVBdFGT0cODAAXYeT0/PfBt9586dbBevUCzMeWmdYV+DRnUH9XYF2dVU7TgTJ05Um1tFvvRNAEi+JA6AD7wL9AkAaNSoUVpb0pXJZDRjxgxWl42NjZI44o0bN1iuj5wdL09IpVJatGiRyhTaxooPio7sBhrRFdTVCWSdRSrG2NiYVq1ale/AvzAtLYgQI8C/YAICAlQI/qtWrUo//vhjkWbUp6en04IFC5TspyfhKUPH9gYt9+aJtRaN4WmFs/bjGjVq0LFjx4quHz99+jRb+sOciq2tLQUEBGicxyY/+PTpE61atUqFOc3c3JwmTZqUbzIvgUcGAMmF+vJEWlqakmqigT7fMfJ6s/zyvbLGUoMGDfJs7/v379nwX57sB4CncBXoWcVisVamttkhODiYPeCmpqZ06NAhVq+3tzdvDzVUPj98+EBffvkls0UFU/W0xicPAJUvl2nDTp06qZ3iII9REACS33e1cePGDRo5cqSKMoOLiwtt3769WLmX7t27l61qRE6lRo0atGDBguJLDYmLi6OtW7eSl5cXOTs7U61atahq1apUv3596tixI/n5+dGxY8dKlOi6TCajEydOUK9evZRWAgBe0fLQoUNqtVcqlbKlUbFYTKdOncr1O+np6Up6QC6N1RvGKpaJ/TPbam1tnWsOxsiRIwngKVyFoOPWrVsZh42pqWmB3tSFwdmzZ1l2rDC15jiOPn78yPTHunbtmuOIMTo6WklA0LNj/m3Y88tMGzo7O+eZB6TIsf3111+rNTLKyMigHTt2sOmiUAwNDWnYsGF09erVEtMfAD6nKDg4mLy9vcnZ2ZlsbGyoatWqVLt2bXJ3d6fZs2fT4cOHP2tuao0gMjKSZsyYoTK9sbW1VYuQPSYmhuWtWFhY5LqaoJi56903/x1FsRjqZ05Psou7REREMGe6YMEC4jiOZs6cmeO0pijx5MkTFngHQN9//z2lpaUJJGztlgcAAAiCSURBVPYEgMLCwlTalpaWRo6OjuyYdVMKbr+lYzPvdfv27XN8wShybNeuXTvPGNe7d+9o/vz5jLJWKDVr1qRffvmFPnz4oOuwOvAkUcHBwUx4TyiC+HxukjO3bt1iMS1HR8dsVxYUYz6aSi/X1+PP99133ynVJ5PJWMesV68excTECFMqAnhG/+LmbY6NjWXSKQCfNPbhwwe2glK7dm2VOJVi7sv6Qjib7JxOdosY6enpbIRibGxM169fz9FmERERNHjwYBX98Pbt29OePXtK1AhfhxIEjuMoIiKCvvvuO5WHx8XFhUJCQrKVTVHcAjJixAilKUFcXBzj/W1ppxlngw2ZW0MAKNFYKlKlbtu2TcmJDhw4UONLrQVFRkaGEo91/fr1ac+ePWxkJqcmBcAH/oU8IXViXuoWgVPbyMhISf0AAOSE4ASAfv/9dxWb5aSLVq5cORozZky+VxR1+MwRFRVFCxcuVOFYrlKlCs2ZM0dleVXInAVAa9euZf8TMjwlYs11FKF8UY+vT773CR8/fmQxkrZt2yotufv7+5fIDrBmzRq2SlWxYkWW72VkZESRkZEEZMajqlbSvA0rluftI9fUAqAst5KV6/n169c0e/ZsplEvlDp16tCvv/7KJI90yB1llmO2sMjIyKCDBw8iMDAQZ86cYZ9LJBL06dMHPj4++OqrryCTydClSxecOXMG+vr6CA8Ph4uLCxo3boz79+/Dox2wb7Bm2xb6Gvj2Z/7327dvY+3atVi3bh309fWhp6eHlJQUGBkZITg4GIMGDSqx9/jYsWPk6emJ+Ph46OnpwcDAAMnJyejbty82b94Ma2trpKamYsEoYE5rzdY97QywdAdgbm6ON2/e4OnTp3BxcUFycjKcnZ1x9uxZGBoais6ePUsCZ7BUKgUAiEQidOnSBT4+PujWrVuZ5mrWNHSGUgN37tyhtWvXYuvWrUhMTGSfN27cGN7e3ujatSvatWuHV69eoWrVqggNDUXHjh35gzZop01V/Hg2tzFjxmDz5s1KBNpWVlYICwuDs7Nzib+/d+/epR49eiAyMlLp82nTpmHp0qXQkwDStVqqXE4AHhISgh9//BFPnz6FlZUV/vnnH5w5cwaBgYG4efMmO7x8+fIYPnw4vL29YW9vX+JtWxKhM1o+IE8HQGBgIB4+fMg+NzMzQ7du3bBv3z6kp6ejfv36ePz4MQz1gbRA7bTlmx3ArjNAxYoVERubySPZtGlTHDp0CLVq1So19/b9+/fk4eGB8+fPs8/Mzc0RFxcHxwbA1Snaqbf+z8Dj10C9evXw5MkTSCQS9O/fHydOnFCyqb29PXx8fDB06FCYmZmVGruWROiMVwBwHEenTp1CUFAQDh48mK08BwC0bghcnqSdNiy5AUxfr/xZz549ERoaivLly5e6+5qamkpjxozB1q1blT7/oRewobt26hy0C/jzVObfIpGIkYGLxWJ0794d48ePh5ubW7EQo5dF6BV3A0ojFB++58+f0/r167Fp0yZ8/PhR6biqFbXXhunNlf+uVasWi3/IdweXKvTo0QNA5mhDQJ1q2quzTnXlv4kIFStWxKhRozBu3DjUqVNHdOjQIe014DOEzuEUEra2tiKA3+S6a9curFmzBlevXgWgfYkORbx48QIvXrwougqLCHpaVA7SVzi3g4MDJkyYgMGDB8PExISR6eugWegcjoZgbGzMRj3u7u50/PhxxOct3VRgbHsJDAE/9P/hhxxkTEsxduzYgdjYWK3aUDh3o0aNcOfOHdGYMWMwZswY7VWog87haAOurq44fvw4bj3VXh035bMOBwcHrFu3rszFF/r27Uv79+/nbeiinToEG7Zq1Qr37t3TTiU6KEFFl0qHwqNly5YAgOfvtFfH5QfKdZU1CNd1+b726rj6ULkuHbQPncPRApycnKCnxw8eV9zWTh3n5ed1dXXVTgXFjDZt2gAA3kRrr444uYJxWbVhSYTO4WgBFhYWIg8PDwDA2gOaP7/fWYDj+PwfT09PzVdQAtC2bVvY2dkBAAb8qfnzu2/mfzo6OqJ58+a5H6yDxqBzOFqCt7c3AD6xbNUdzZ571V7+57Bhw0plzo06kEgkonHjxgEAdodr/vzHebl0eHt763JsihA6Q2sJcrUHhIWFwdgQSFmtmfO2CeSnU5UqVcLdu3dRrVq1MnsPk5OT6YsvvsCjR49Qpzrw7EfNnLfaLODtR6B58+a4dOkSDAwMyqwNSxp0IxwtQSwWi9avX49KlSohJQ2oMafw5+y3PTN2ExgYWKadDQCUK1dOFBwcDJFIhGf/AS4acNpfLOWdjb6+Pn7//Xedsyli6ByOFlGtWjVRaGgoDAwM8PoDUHNuwc/VPRjY+zf/u7e3NwYOHKiZRpZwuLq6siS8i3eBVisKfq6mS4B/5UvhQUFBaNasmc7ZFDF0DkfL+Prrr0X79u2Dvr4+Xr0HRF7A1NPqf3/rC8ByBnAkgv/by8sLq1ev/qziDlOnThUtWbIEAHDlAWAyMX+rf4uuAYY+YHlR69atw5gxYz4b++nwGeKff/5R0u821Ad96wYKmZ09QdS0gaCaVTKJngwNDWn58uWlUt9cUwgNDVXSlq9kBhrXJ2eSrTE9QWYmmTa0tLSk/fv3f7b20+EzQ0JCAk2cOJFpcKtbOnbsWOp0uLWFN2/eUP/+/VWUN3IrEomEBg8eXGA9ex10KNX48OEDLV68mJycnEgikWTbSWrXrk3e3t65knh/znjy5AnNmDGDGjVqlK39RCIRNWnShGbPnk3Pnz/X2bCEQDePLWYkJyfTkydPEBUVBalUikqVKqF27dqoUqWK7t6oidjYWHr27Bk+fPgAkUiEKlWqoE6dOjA3N9fZUAcddNBBBx100EEHHXTQQQcddNBBBx3yif8Db5PAyU99/C8AAAAASUVORK5CYII=;fontFamily=Times New Roman;opacity=50;fontSize=18;" vertex="1" parent="1">
          <mxGeometry x="434" y="384.9300000000001" width="157" height="71.86" as="geometry" />
        </mxCell>
        <mxCell id="fHaf_IxsQTMbm6-gp9eM-5" style="rounded=0;orthogonalLoop=1;jettySize=auto;html=1;fontFamily=Times New Roman;fontSize=18;" edge="1" parent="1" source="fHaf_IxsQTMbm6-gp9eM-10" target="fHaf_IxsQTMbm6-gp9eM-2">
          <mxGeometry relative="1" as="geometry">
            <mxPoint x="72" y="422.9000000000001" as="sourcePoint" />
          </mxGeometry>
        </mxCell>
        <mxCell id="fHaf_IxsQTMbm6-gp9eM-6" value="Query" style="edgeLabel;html=1;align=center;verticalAlign=middle;resizable=0;points=[];fontSize=18;fontFamily=Times New Roman;" vertex="1" connectable="0" parent="fHaf_IxsQTMbm6-gp9eM-5">
          <mxGeometry x="0.1589" y="-1" relative="1" as="geometry">
            <mxPoint x="-8" y="-15" as="offset" />
          </mxGeometry>
        </mxCell>
        <mxCell id="fHaf_IxsQTMbm6-gp9eM-7" value="&lt;font style=&quot;font-size: 17px;&quot; face=&quot;Times New Roman&quot;&gt;Dataset + Membership Info&lt;/font&gt;" style="sketch=0;outlineConnect=0;fontColor=#232F3E;gradientColor=none;fillColor=#232F3D;strokeColor=none;dashed=0;verticalLabelPosition=bottom;verticalAlign=top;align=center;html=1;fontSize=12;fontStyle=0;aspect=fixed;pointerEvents=1;shape=mxgraph.aws4.documents;" vertex="1" parent="1">
          <mxGeometry x="693" y="381.86" width="64" height="78" as="geometry" />
        </mxCell>
        <mxCell id="fHaf_IxsQTMbm6-gp9eM-10" value="&lt;font style=&quot;font-size: 18px;&quot; face=&quot;Times New Roman&quot;&gt;Dataset&lt;/font&gt;" style="sketch=0;outlineConnect=0;fontColor=#232F3E;gradientColor=none;fillColor=#232F3D;strokeColor=none;dashed=0;verticalLabelPosition=bottom;verticalAlign=top;align=center;html=1;fontSize=12;fontStyle=0;aspect=fixed;pointerEvents=1;shape=mxgraph.aws4.documents;" vertex="1" parent="1">
          <mxGeometry x="26" y="380.79" width="64" height="78" as="geometry" />
        </mxCell>
        <mxCell id="fHaf_IxsQTMbm6-gp9eM-13" value="Train" style="edgeLabel;html=1;align=center;verticalAlign=middle;resizable=0;points=[];fontSize=18;fontFamily=Times New Roman;" vertex="1" connectable="0" parent="1">
          <mxGeometry x="139.9940989145864" y="400.00376599814683" as="geometry">
            <mxPoint x="246" y="8" as="offset" />
          </mxGeometry>
        </mxCell>
        <mxCell id="fHaf_IxsQTMbm6-gp9eM-14" value="&lt;font style=&quot;font-size: 16px;&quot; face=&quot;Times New Roman&quot;&gt;MEMBER&lt;/font&gt;" style="whiteSpace=wrap;html=1;shape=mxgraph.basic.roundRectCallout;dx=30;dy=15;size=5;boundedLbl=1;fillColor=#d5e8d4;strokeColor=#82b366;" vertex="1" parent="1">
          <mxGeometry x="741" y="370" width="100" height="40" as="geometry" />
        </mxCell>
        <mxCell id="fHaf_IxsQTMbm6-gp9eM-15" value="&lt;font style=&quot;font-size: 16px;&quot; face=&quot;Times New Roman&quot;&gt;NON-MEMBER&lt;/font&gt;" style="whiteSpace=wrap;html=1;shape=mxgraph.basic.roundRectCallout;dx=30;dy=15;size=5;boundedLbl=1;fillColor=#f8cecc;strokeColor=#b85450;flipV=0;flipH=1;" vertex="1" parent="1">
          <mxGeometry x="601" y="344.93" width="120" height="40" as="geometry" />
        </mxCell>
      </root>
    </mxGraphModel>
  </diagram>
</mxfile>
